<svg width="26" height="26" viewBox="0 0 26 26" fill="none" xmlns="http://www.w3.org/2000/svg">
<path d="M4.33356 5.41667V17.3333H21.6669V5.41667H4.33356ZM2.16689 4.34092C2.16689 3.73858 2.65981 3.25 3.24156 3.25H22.7589C23.3526 3.25 23.8336 3.73642 23.8336 4.34092V19.5H2.16689V4.34092ZM1.08356 20.5833H24.9169V22.75H1.08356V20.5833Z" fill="#485EB0"/>
<path d="M15.1664 9.31675C15.1664 8.95776 15.4575 8.66675 15.8164 8.66675H23.1831C23.5421 8.66675 23.8331 8.95776 23.8331 9.31675V22.1001C23.8331 22.4591 23.5421 22.7501 23.1831 22.7501H15.8164C15.4575 22.7501 15.1664 22.4591 15.1664 22.1001V9.31675Z" fill="#EDEFF7"/>
<path fill-rule="evenodd" clip-rule="evenodd" d="M14.7332 9.31665C14.7332 8.41919 15.4607 7.69165 16.3582 7.69165H23.7248C24.6223 7.69165 25.3498 8.41919 25.3498 9.31665V22.1C25.3498 22.9975 24.6223 23.725 23.7248 23.725H16.3582C15.4607 23.725 14.7332 22.9974 14.7332 22.1V9.31665ZM16.6832 9.64165V21.775H23.3998V9.64165H16.6832Z" fill="#485EB0"/>
</svg>
