<svg width="205" height="71" viewBox="0 0 205 71" fill="none" xmlns="http://www.w3.org/2000/svg">
<path opacity="0.03" fill-rule="evenodd" clip-rule="evenodd" d="M163.976 0H44.072C41.3075 0 39.0462 2.95367 39.0462 6.56349C39.0462 10.1738 41.3075 13.127 44.072 13.127H54.2185C54.0053 13.127 53.7971 13.1505 53.5936 13.1878C55.2797 13.4995 56.5718 15.0423 56.5718 16.8886C56.5718 17.8084 56.2501 18.6526 55.7191 19.3067H20.4692C17.7052 19.3067 15.4435 22.2604 15.4435 25.8702C15.4435 29.48 17.7052 32.4337 20.4692 32.4337H27.2374C27.6796 32.6013 28.146 32.6933 28.6285 32.6933H30.6616C32.0077 33.2391 32.9694 34.6035 32.9694 36.1953C32.9694 37.2418 32.5531 38.1903 31.886 38.873H5.02575C2.26167 38.873 0 41.8267 0 45.4365C0 49.0463 2.26167 52 5.02575 52H124.93C127.694 52 129.955 49.0463 129.955 45.4365C129.955 41.8267 127.694 38.873 124.93 38.873H116.005C115.339 38.1893 114.924 37.2408 114.924 36.1953C114.924 34.6055 115.883 33.2411 117.225 32.6933H148.532C151.296 32.6933 153.558 29.7396 153.558 26.1298C153.558 22.5195 151.296 19.5663 148.532 19.5663H141.764C141.322 19.3987 140.855 19.3067 140.373 19.3067H139.378C138.848 18.6516 138.526 17.8079 138.526 16.8886C138.526 14.8195 140.148 13.127 142.13 13.127H163.976C166.738 13.127 169 10.1738 169 6.56349C169 2.95367 166.738 0 163.976 0Z" fill="#4C3CCE"/>
<path opacity="0.02" fill-rule="evenodd" clip-rule="evenodd" d="M199.976 19H80.072C77.3075 19 75.0462 21.9537 75.0462 25.5635C75.0462 29.1738 77.3075 32.127 80.072 32.127H90.2185C90.0053 32.127 89.7971 32.1505 89.5936 32.1878C91.2797 32.4995 92.5718 34.0423 92.5718 35.8886C92.5718 36.8084 92.2501 37.6526 91.7191 38.3067H56.4692C53.7052 38.3067 51.4435 41.2604 51.4435 44.8702C51.4435 48.48 53.7052 51.4337 56.4692 51.4337H63.2374C63.6796 51.6013 64.146 51.6933 64.6285 51.6933H66.6616C68.0077 52.2391 68.9694 53.6035 68.9694 55.1953C68.9694 56.2418 68.5531 57.1903 67.886 57.873H41.0257C38.2617 57.873 36 60.8267 36 64.4365C36 68.0463 38.2617 71 41.0257 71H160.93C163.694 71 165.955 68.0463 165.955 64.4365C165.955 60.8267 163.694 57.873 160.93 57.873H152.005C151.339 57.1893 150.924 56.2408 150.924 55.1953C150.924 53.6055 151.883 52.2411 153.225 51.6933H184.532C187.296 51.6933 189.558 48.7396 189.558 45.1298C189.558 41.5195 187.296 38.5663 184.532 38.5663H177.764C177.322 38.3987 176.855 38.3067 176.373 38.3067H175.378C174.848 37.6516 174.526 36.8079 174.526 35.8886C174.526 33.8195 176.148 32.127 178.13 32.127H199.976C202.738 32.127 205 29.1738 205 25.5635C205 21.9537 202.738 19 199.976 19Z" fill="#4C3CCE"/>
<path opacity="0.15" d="M89.8635 35.7957H72.7441V52.9151H89.8635V35.7957Z" fill="#4C3CCE"/>
<path opacity="0.15" d="M110.705 10.4885H93.5854V27.6079H110.705V10.4885Z" fill="#4C3CCE"/>
<path opacity="0.15" d="M131.545 35.7957H114.426V52.9151H131.545V35.7957Z" fill="#4C3CCE"/>
<path opacity="0.15" d="M89.8635 10.4885H72.7441V27.6079H89.8635V10.4885Z" fill="#4C3CCE"/>
<path d="M88.2805 53.8427H74.6414C73.1849 53.8427 72 52.6577 72 51.2013V35.6613C72 34.9824 72.5554 34.427 73.2343 34.427H89.6876C90.3665 34.427 90.922 34.9824 90.922 35.6613V51.2136C90.922 52.6577 89.737 53.8427 88.2805 53.8427ZM74.4686 36.8956V51.2136C74.4686 51.3123 74.5427 51.3864 74.6414 51.3864H88.2805C88.3793 51.3864 88.4533 51.3123 88.4533 51.2136V36.8956H74.4686Z" fill="#28313B"/>
<path d="M82.7139 43.0425C82.393 43.0425 82.0597 42.9931 81.7388 42.882C81.5536 42.8203 81.3685 42.8203 81.1833 42.882C80.0972 43.2523 78.9122 42.9808 78.0976 42.1661C77.8631 41.9316 77.7396 41.623 77.7396 41.2898V35.6613C77.7396 34.9824 78.2951 34.427 78.9739 34.427H83.9605C84.6394 34.427 85.1948 34.9824 85.1948 35.6613V41.2898C85.1948 41.623 85.0591 41.9316 84.8369 42.1661C84.2444 42.7339 83.4915 43.0425 82.7139 43.0425ZM81.4549 40.364C81.8128 40.364 82.1831 40.4257 82.5287 40.5492C82.5781 40.5615 82.6522 40.5615 82.7139 40.5739V36.8956H80.2082V40.5739C80.27 40.5739 80.3317 40.5615 80.3934 40.5492C80.739 40.4257 81.0969 40.364 81.4549 40.364Z" fill="#28313B"/>
<path d="M77.4798 50.5221H76.6775C75.9987 50.5221 75.4432 49.9666 75.4432 49.2878C75.4432 48.6089 75.9987 48.0535 76.6775 48.0535H77.4922C78.1711 48.0535 78.7265 48.6089 78.7265 49.2878C78.7265 49.9666 78.1711 50.5221 77.4798 50.5221Z" fill="#28313B"/>
<path d="M129.358 53.8427H115.719C114.262 53.8427 113.078 52.6577 113.078 51.2013V35.6613C113.078 34.9824 113.633 34.427 114.312 34.427H130.765C131.444 34.427 131.999 34.9824 131.999 35.6613V51.2136C131.999 52.6577 130.815 53.8427 129.358 53.8427ZM115.546 36.8956V51.2136C115.546 51.3123 115.62 51.3864 115.719 51.3864H129.358C129.457 51.3864 129.531 51.3123 129.531 51.2136V36.8956H115.546Z" fill="#28313B"/>
<path d="M123.791 43.0425C123.47 43.0425 123.137 42.9931 122.816 42.882C122.631 42.8203 122.446 42.8203 122.261 42.882C121.175 43.2523 119.99 42.9808 119.175 42.1661C118.94 41.9316 118.817 41.623 118.817 41.2898V35.6613C118.817 34.9824 119.372 34.427 120.051 34.427H125.038C125.717 34.427 126.272 34.9824 126.272 35.6613V41.2898C126.272 41.623 126.136 41.9316 125.914 42.1661C125.322 42.7339 124.569 43.0425 123.791 43.0425ZM122.532 40.364C122.89 40.364 123.261 40.4257 123.606 40.5492C123.656 40.5615 123.717 40.5615 123.791 40.5739V36.8956H121.273V40.5739C121.335 40.5739 121.397 40.5615 121.458 40.5492C121.816 40.4257 122.174 40.364 122.532 40.364Z" fill="#28313B"/>
<path d="M118.557 50.5221H117.743C117.064 50.5221 116.508 49.9666 116.508 49.2878C116.508 48.6089 117.064 48.0535 117.743 48.0535H118.557C119.236 48.0535 119.792 48.6089 119.792 49.2878C119.792 49.9666 119.236 50.5221 118.557 50.5221Z" fill="#28313B"/>
<path d="M108.82 53.8427H95.1806C93.7241 53.8427 92.5392 52.6577 92.5392 51.2013V35.6613C92.5392 34.9824 93.0946 34.427 93.7735 34.427H110.227C110.906 34.427 111.461 34.9824 111.461 35.6613V51.2136C111.461 52.6577 110.276 53.8427 108.82 53.8427ZM95.0078 36.8956V51.2136C95.0078 51.3123 95.0819 51.3864 95.1806 51.3864H108.82C108.918 51.3864 108.993 51.3123 108.993 51.2136V36.8956H95.0078Z" fill="#28313B"/>
<path d="M103.253 43.0425C102.932 43.0425 102.599 42.9931 102.278 42.882C102.093 42.8203 101.908 42.8203 101.735 42.882C100.649 43.2523 99.4637 42.9808 98.6491 42.1661C98.4146 41.9316 98.2911 41.623 98.2911 41.2898V35.6613C98.2911 34.9824 98.8466 34.427 99.5254 34.427H104.512C105.191 34.427 105.746 34.9824 105.746 35.6613V41.2898C105.746 41.623 105.611 41.9316 105.388 42.1661C104.784 42.7339 104.031 43.0425 103.253 43.0425ZM101.994 40.364C102.352 40.364 102.722 40.4257 103.068 40.5492C103.117 40.5739 103.191 40.5739 103.253 40.5739V36.8956H100.735V40.5739C100.797 40.5615 100.859 40.5615 100.92 40.5492C101.278 40.4257 101.636 40.364 101.994 40.364Z" fill="#28313B"/>
<path d="M98.0193 50.5221H97.2046C96.5258 50.5221 95.9703 49.9666 95.9703 49.2878C95.9703 48.6089 96.5258 48.0535 97.2046 48.0535H98.0193C98.6982 48.0535 99.2536 48.6089 99.2536 49.2878C99.2536 49.9666 98.7105 50.5221 98.0193 50.5221Z" fill="#28313B"/>
<path d="M88.2805 28.428H74.6414C73.1849 28.428 72 27.2431 72 25.7866V10.2343C72 9.55544 72.5554 9 73.2343 9H89.6876C90.3665 9 90.922 9.55544 90.922 10.2343V25.7866C90.922 27.2431 89.737 28.428 88.2805 28.428ZM74.4686 11.4686V25.7866C74.4686 25.8853 74.5427 25.9594 74.6414 25.9594H88.2805C88.3793 25.9594 88.4533 25.8853 88.4533 25.7866V11.4686H74.4686Z" fill="#28313B"/>
<path d="M82.7139 17.6155C82.393 17.6155 82.0597 17.5661 81.7388 17.455C81.5536 17.3933 81.3685 17.3933 81.1833 17.455C80.0972 17.8253 78.9122 17.5538 78.0976 16.7391C77.8631 16.5046 77.7396 16.196 77.7396 15.8628V10.2343C77.7396 9.55544 78.2951 9 78.9739 9H83.9605C84.6394 9 85.1948 9.55544 85.1948 10.2343V15.8628C85.1948 16.196 85.0591 16.5046 84.8369 16.7391C84.2444 17.3069 83.4915 17.6155 82.7139 17.6155ZM81.4549 14.937C81.8128 14.937 82.1831 14.9987 82.5287 15.1222C82.5781 15.1345 82.6522 15.1345 82.7139 15.1469V11.4686H80.2082V15.1469C80.27 15.1469 80.3317 15.1345 80.3934 15.1222C80.739 14.9987 81.0969 14.937 81.4549 14.937Z" fill="#28313B"/>
<path d="M77.4798 25.1083H76.6775C75.9987 25.1083 75.4432 24.5528 75.4432 23.874C75.4432 23.1951 75.9987 22.6396 76.6775 22.6396H77.4922C78.1711 22.6396 78.7265 23.1951 78.7265 23.874C78.7142 24.5528 78.1711 25.1083 77.4798 25.1083Z" fill="#28313B"/>
<path d="M129.358 28.428H115.719C114.262 28.428 113.078 27.2431 113.078 25.7866V10.2343C113.078 9.55544 113.633 9 114.312 9H130.765C131.444 9 131.999 9.55544 131.999 10.2343V25.7866C131.999 27.2431 130.815 28.428 129.358 28.428ZM115.546 11.4686V25.7866C115.546 25.8853 115.62 25.9594 115.719 25.9594H129.358C129.457 25.9594 129.531 25.8853 129.531 25.7866V11.4686H115.546Z" fill="#28313B"/>
<path d="M123.791 17.6155C123.47 17.6155 123.137 17.5661 122.816 17.455C122.631 17.3933 122.446 17.3933 122.261 17.455C121.175 17.8253 119.99 17.5538 119.175 16.7391C118.94 16.5046 118.817 16.196 118.817 15.8628V10.2343C118.817 9.55544 119.372 9 120.051 9H125.038C125.717 9 126.272 9.55544 126.272 10.2343V15.8628C126.272 16.196 126.136 16.5046 125.914 16.7391C125.322 17.3069 124.569 17.6155 123.791 17.6155ZM122.532 14.937C122.89 14.937 123.261 14.9987 123.606 15.1222C123.656 15.1345 123.717 15.1345 123.791 15.1469V11.4686H121.273V15.1469C121.335 15.1469 121.397 15.1345 121.458 15.1222C121.816 14.9987 122.174 14.937 122.532 14.937Z" fill="#28313B"/>
<path d="M118.557 25.1083H117.743C117.064 25.1083 116.508 24.5528 116.508 23.874C116.508 23.1951 117.064 22.6396 117.743 22.6396H118.557C119.236 22.6396 119.792 23.1951 119.792 23.874C119.792 24.5528 119.236 25.1083 118.557 25.1083Z" fill="#28313B"/>
<path d="M108.82 28.428H95.1806C93.7241 28.428 92.5392 27.2431 92.5392 25.7866V10.2343C92.5392 9.55544 93.0946 9 93.7735 9H110.227C110.906 9 111.461 9.55544 111.461 10.2343V25.7866C111.461 27.2431 110.276 28.428 108.82 28.428ZM95.0078 11.4686V25.7866C95.0078 25.8853 95.0819 25.9594 95.1806 25.9594H108.82C108.918 25.9594 108.993 25.8853 108.993 25.7866V11.4686H95.0078Z" fill="#28313B"/>
<path d="M103.253 17.6155C102.932 17.6155 102.599 17.5661 102.278 17.455C102.093 17.3933 101.908 17.3933 101.735 17.455C100.649 17.8253 99.4637 17.5538 98.6491 16.7391C98.4146 16.5046 98.2911 16.196 98.2911 15.8628V10.2343C98.2911 9.55544 98.8466 9 99.5254 9H104.512C105.191 9 105.746 9.55544 105.746 10.2343V15.8628C105.746 16.196 105.611 16.5046 105.388 16.7391C104.784 17.3069 104.031 17.6155 103.253 17.6155ZM101.994 14.937C102.352 14.937 102.722 14.9987 103.068 15.1222C103.117 15.1469 103.191 15.1592 103.253 15.1469V11.4686H100.735V15.1469C100.797 15.1345 100.859 15.1345 100.92 15.1222C101.278 14.9987 101.636 14.937 101.994 14.937Z" fill="#28313B"/>
<path d="M98.0193 25.1083H97.2046C96.5258 25.1083 95.9703 24.5528 95.9703 23.874C95.9703 23.1951 96.5258 22.6396 97.2046 22.6396H98.0193C98.6982 22.6396 99.2536 23.1951 99.2536 23.874C99.2536 24.5528 98.7105 25.1083 98.0193 25.1083Z" fill="#28313B"/>
<path d="M130.765 32.7115H73.2343C72.5554 32.7115 72 32.1561 72 31.4772C72 30.7984 72.5554 30.2429 73.2343 30.2429H130.765C131.444 30.2429 132 30.7984 132 31.4772C132 32.1561 131.444 32.7115 130.765 32.7115Z" fill="#28313B"/>
<path d="M130.765 58.0392H73.2343C72.5554 58.0392 72 57.4837 72 56.8049C72 56.126 72.5554 55.5706 73.2343 55.5706H130.765C131.444 55.5706 132 56.126 132 56.8049C132 57.4837 131.444 58.0392 130.765 58.0392Z" fill="#28313B"/>
<path d="M80.9734 62.9764H73.2343C72.5554 62.9764 72 62.421 72 61.7421V56.8049C72 56.126 72.5554 55.5706 73.2343 55.5706H80.9734C81.6523 55.5706 82.2077 56.126 82.2077 56.8049V61.7421C82.2077 62.421 81.6646 62.9764 80.9734 62.9764ZM74.4686 60.5078H79.7391V58.0392H74.4686V60.5078Z" fill="#28313B"/>
<path d="M130.766 62.9764H123.027C122.348 62.9764 121.792 62.421 121.792 61.7421V56.8049C121.792 56.126 122.348 55.5706 123.027 55.5706H130.766C131.445 55.5706 132 56.126 132 56.8049V61.7421C132 62.421 131.445 62.9764 130.766 62.9764ZM124.249 60.5078H129.519V58.0392H124.249V60.5078Z" fill="#28313B"/>
<path d="M105.869 62.9764H98.1303C97.4514 62.9764 96.896 62.421 96.896 61.7421V56.8049C96.896 56.126 97.4514 55.5706 98.1303 55.5706H105.869C106.548 55.5706 107.104 56.126 107.104 56.8049V61.7421C107.104 62.421 106.548 62.9764 105.869 62.9764ZM99.3646 60.5078H104.635V58.0392H99.3646V60.5078Z" fill="#28313B"/>
</svg>
