<svg width="127" height="19" viewBox="0 0 127 19" fill="none" xmlns="http://www.w3.org/2000/svg">
<g clip-path="url(#clip0_103_208)">
<path d="M33.2815 15.7948H31.1844V3.67859H33.2815V15.7948Z" fill="#28313B"/>
<path d="M42.2023 12.6741C42.2023 12.1415 42.0136 11.731 41.6364 11.4425C41.2647 11.1541 40.5906 10.8628 39.6142 10.5688C38.6378 10.2747 37.8612 9.94746 37.2842 9.58685C36.1802 8.89339 35.6282 7.98911 35.6282 6.87402C35.6282 5.89761 36.0249 5.09319 36.8182 4.46075C37.6171 3.82831 38.6517 3.51208 39.9221 3.51208C40.7654 3.51208 41.5171 3.66741 42.1773 3.97809C42.8375 4.28876 43.3562 4.73258 43.7334 5.30955C44.1107 5.88096 44.2993 6.51618 44.2993 7.2152H42.2023C42.2023 6.58276 42.0025 6.08901 41.6031 5.73396C41.2092 5.37335 40.6433 5.19304 39.9055 5.19304C39.2176 5.19304 38.6822 5.34007 38.2994 5.63409C37.9222 5.92812 37.7336 6.33865 37.7336 6.86569C37.7336 7.30951 37.9388 7.68122 38.3494 7.98079C38.7599 8.27482 39.4367 8.5633 40.3798 8.84623C41.3229 9.12362 42.0802 9.44261 42.6516 9.80322C43.223 10.1582 43.6419 10.5688 43.9082 11.0348C44.1745 11.4952 44.3076 12.0361 44.3076 12.6575C44.3076 13.6672 43.9193 14.4716 43.1426 15.0708C42.3715 15.6644 41.3229 15.9612 39.997 15.9612C39.1205 15.9612 38.3133 15.8003 37.5754 15.4785C36.8431 15.1512 36.2717 14.7018 35.8612 14.1304C35.4562 13.559 35.2537 12.8933 35.2537 12.1332H37.3591C37.3591 12.8211 37.5865 13.3537 38.0415 13.731C38.4964 14.1082 39.1482 14.2968 39.997 14.2968C40.7293 14.2968 41.2786 14.1498 41.6447 13.8558C42.0164 13.5562 42.2023 13.1623 42.2023 12.6741Z" fill="#28313B"/>
<path d="M55.8247 10.0528C55.8247 11.24 55.6195 12.283 55.2089 13.1818C54.7984 14.0749 54.2103 14.7629 53.4448 15.2455C52.6847 15.7226 51.8082 15.9612 50.8151 15.9612C49.8332 15.9612 48.9566 15.7226 48.1855 15.2455C47.4199 14.7629 46.8263 14.0777 46.4047 13.1901C45.9886 12.3024 45.7778 11.2789 45.7722 10.1194V9.43707C45.7722 8.2554 45.9803 7.21242 46.3964 6.30814C46.818 5.40386 47.4088 4.71317 48.1689 4.23607C48.9344 3.75341 49.811 3.51208 50.7985 3.51208C51.786 3.51208 52.6598 3.75063 53.4198 4.22774C54.1854 4.69929 54.7762 5.38167 55.1923 6.27485C55.6084 7.16249 55.8192 8.19715 55.8247 9.37881V10.0528ZM53.7194 9.42042C53.7194 8.07787 53.4642 7.04876 52.9538 6.3331C52.4489 5.61745 51.7305 5.25962 50.7985 5.25962C49.8887 5.25962 49.1758 5.61745 48.6598 6.3331C48.1494 7.04321 47.8887 8.05014 47.8776 9.35386V10.0528C47.8776 11.3843 48.1356 12.4134 48.6515 13.1401C49.173 13.8669 49.8942 14.2303 50.8151 14.2303C51.7472 14.2303 52.4628 13.8752 52.9621 13.1651C53.4669 12.455 53.7194 11.4176 53.7194 10.0528V9.42042Z" fill="#28313B"/>
<path d="M72.4705 11.8504C72.3485 13.1431 71.8714 14.1528 71.0392 14.8795C70.207 15.6007 69.1003 15.9613 67.7189 15.9613C66.7536 15.9613 65.902 15.7339 65.1641 15.2789C64.4318 14.8185 63.866 14.1666 63.4665 13.3234C63.0671 12.4801 62.8591 11.5009 62.8424 10.3858V9.25412C62.8424 8.11128 63.0449 7.10437 63.4499 6.23337C63.8549 5.36238 64.4346 4.6911 65.1891 4.21954C65.9492 3.74798 66.8257 3.51221 67.8187 3.51221C69.1557 3.51221 70.232 3.87558 71.0475 4.60234C71.863 5.32909 72.3374 6.35542 72.4705 7.68133H70.3735C70.2736 6.81034 70.0184 6.18344 69.6079 5.80065C69.2029 5.41231 68.6065 5.21814 67.8187 5.21814C66.9034 5.21814 66.1988 5.55377 65.7051 6.22505C65.2169 6.89078 64.9672 7.86996 64.9561 9.16258V10.236C64.9561 11.5453 65.1891 12.5439 65.6551 13.2318C66.1267 13.9197 66.8146 14.2637 67.7189 14.2637C68.5455 14.2637 69.1668 14.0779 69.5829 13.7062C69.999 13.3345 70.2625 12.7159 70.3735 11.8504H72.4705Z" fill="#28313B"/>
<path d="M78.1292 15.9613C76.8477 15.9613 75.8075 15.5591 75.0086 14.7547C74.2153 13.9447 73.8186 12.8685 73.8186 11.5259V11.2762C73.8186 10.3775 73.9906 9.57591 74.3346 8.87134C74.6841 8.16123 75.1723 7.60923 75.7992 7.21534C76.4261 6.82145 77.1251 6.62451 77.8962 6.62451C79.1223 6.62451 80.0682 7.01562 80.7339 7.79786C81.4052 8.58009 81.7408 9.68686 81.7408 11.1181V11.9337H75.8574C75.9184 12.6771 76.1653 13.2651 76.598 13.6978C77.0363 14.1306 77.5855 14.3469 78.2457 14.3469C79.1722 14.3469 79.9267 13.9725 80.5092 13.2235L81.5993 14.2637C81.2387 14.8018 80.7561 15.2207 80.1514 15.5203C79.5522 15.8143 78.8782 15.9613 78.1292 15.9613ZM77.8879 8.24722C77.3331 8.24722 76.8838 8.44139 76.5398 8.82974C76.2014 9.21808 75.985 9.75898 75.8907 10.4524H79.7436V10.3026C79.6992 9.62584 79.5189 9.11544 79.2027 8.77148C78.8865 8.42198 78.4482 8.24722 77.8879 8.24722Z" fill="#28313B"/>
<path d="M88.0319 8.63834C87.7656 8.59396 87.491 8.57177 87.2081 8.57177C86.2816 8.57177 85.6575 8.92682 85.3357 9.63693V15.7949H83.3136V6.79094H85.2442L85.2941 7.79786C85.7823 7.01562 86.4591 6.62451 87.3246 6.62451C87.6131 6.62451 87.8516 6.66334 88.0403 6.74101L88.0319 8.63834Z" fill="#28313B"/>
<path d="M92.2593 4.60229V6.79087H93.8487V8.28876H92.2593V13.315C92.2593 13.659 92.3259 13.9087 92.459 14.064C92.5977 14.2138 92.8418 14.2887 93.1913 14.2887C93.4243 14.2887 93.6601 14.2609 93.8987 14.2055V15.7699C93.4382 15.8975 92.9944 15.9613 92.5672 15.9613C91.0138 15.9613 90.2372 15.1042 90.2372 13.3899V8.28876H88.7559V6.79087H90.2372V4.60229H92.2593Z" fill="#28313B"/>
<path d="M97.5519 15.7949H95.5297V6.79091H97.5519V15.7949ZM95.4049 4.45254C95.4049 4.14186 95.502 3.88389 95.6961 3.67863C95.8959 3.47336 96.1788 3.37073 96.545 3.37073C96.9111 3.37073 97.194 3.47336 97.3938 3.67863C97.5935 3.88389 97.6933 4.14186 97.6933 4.45254C97.6933 4.75766 97.5935 5.01286 97.3938 5.21813C97.194 5.41784 96.9111 5.5177 96.545 5.5177C96.1788 5.5177 95.8959 5.41784 95.6961 5.21813C95.502 5.01286 95.4049 4.75766 95.4049 4.45254Z" fill="#28313B"/>
<path d="M100.298 15.7949V8.28879H98.9249V6.7909H100.298V6.1751C100.304 5.47054 100.453 4.86583 100.747 4.36099C101.041 3.85615 101.457 3.47613 101.996 3.22093C102.534 2.96573 103.18 2.83813 103.935 2.83813C104.378 2.83813 104.803 2.88529 105.208 2.9796C105.618 3.07391 106.043 3.19319 106.481 3.33743L106.173 5.01008C105.407 4.74378 104.708 4.61064 104.076 4.61064C103.46 4.61064 103.014 4.74656 102.736 5.0184C102.459 5.28469 102.32 5.6869 102.32 6.22503V6.7909H104.093V8.28879H102.32V15.7949H100.298ZM107.438 15.7949H105.416V6.7909H107.438V15.7949Z" fill="#28313B"/>
<path d="M113.646 15.9613C112.364 15.9613 111.324 15.5591 110.525 14.7547C109.732 13.9447 109.335 12.8685 109.335 11.5259V11.2762C109.335 10.3775 109.507 9.57591 109.851 8.87134C110.201 8.16123 110.689 7.60923 111.316 7.21534C111.943 6.82145 112.642 6.62451 113.413 6.62451C114.639 6.62451 115.585 7.01562 116.251 7.79786C116.922 8.58009 117.257 9.68686 117.257 11.1181V11.9337H111.374C111.435 12.6771 111.682 13.2651 112.115 13.6978C112.553 14.1306 113.102 14.3469 113.762 14.3469C114.689 14.3469 115.443 13.9725 116.026 13.2235L117.116 14.2637C116.755 14.8018 116.273 15.2207 115.668 15.5203C115.069 15.8143 114.395 15.9613 113.646 15.9613ZM113.405 8.24722C112.85 8.24722 112.4 8.44139 112.056 8.82974C111.718 9.21808 111.502 9.75898 111.407 10.4524H115.26V10.3026C115.216 9.62584 115.036 9.11544 114.719 8.77148C114.403 8.42198 113.965 8.24722 113.405 8.24722Z" fill="#28313B"/>
<path d="M118.456 11.2263C118.456 9.83943 118.778 8.72711 119.421 7.8894C120.065 7.04615 120.927 6.62452 122.009 6.62452C122.963 6.62452 123.734 6.95738 124.322 7.62311V3.01294H126.345V15.7949H124.514L124.414 14.8629C123.809 15.5952 123.002 15.9613 121.992 15.9613C120.938 15.9613 120.084 15.5369 119.429 14.6881C118.78 13.8393 118.456 12.6854 118.456 11.2263ZM120.478 11.4011C120.478 12.3165 120.653 13.0322 121.002 13.548C121.357 14.0584 121.859 14.3136 122.508 14.3136C123.335 14.3136 123.94 13.9447 124.322 13.2069V9.36233C123.951 8.64112 123.352 8.28052 122.525 8.28052C121.87 8.28052 121.366 8.54126 121.01 9.06275C120.655 9.57869 120.478 10.3581 120.478 11.4011Z" fill="#28313B"/>
<path d="M22.3674 7.27659C22.1512 6.70903 21.7073 6.20233 21.1669 5.83697C19.6069 4.84645 17.2296 4.77591 15.6222 5.67139C14.7456 6.11833 14.1694 7.00277 13.9901 7.9136C13.6649 9.41002 13.7489 11.1905 14.9017 12.3121C16.246 13.4906 18.2026 13.7509 19.9424 13.2668C20.0251 13.251 20.287 13.185 20.4677 13.0892L20.5186 13.0673C21.0589 12.8428 21.5743 12.4772 21.959 11.982C22.8469 10.6838 22.9078 8.73854 22.3674 7.27659ZM19.5348 10.6369C19.4734 10.9207 19.2825 11.2147 18.9815 11.3213C18.5023 11.5322 17.8539 11.4737 17.41 11.2271C17.0376 10.9668 16.9897 10.5309 16.9418 10.1184C16.9054 9.30529 16.8467 8.44427 17.0745 7.7009C17.253 7.24051 17.7454 7.12204 18.1907 7.08731C18.6584 7.08731 19.1137 7.15866 19.4026 7.53586C19.5824 7.80644 19.5714 8.16049 19.6069 8.47927C19.5943 9.15102 19.6546 9.95227 19.5348 10.6369ZM5.31178 11.3693C4.91547 11.345 4.47149 11.3798 4.08783 11.3326L4.09968 7.19231L4.12391 7.15785L5.31178 7.14627C5.32417 6.47426 5.33601 5.75351 5.2994 5.14099L0.775404 5.12834L0.0304241 5.14126C0.0185776 5.76589 0.0185776 6.49634 0.0304241 7.13389C0.438857 7.14654 0.822251 7.13389 1.21857 7.17077V11.1805L1.20699 11.3453L0.0185776 11.3695C-0.00619254 12.018 -0.00619254 12.6671 0.0185776 13.3156H5.31151L5.31178 11.3693ZM18.6336 14.1992C18.1302 14.9194 17.494 15.6151 16.7993 16.1563C16.774 16.1932 16.7021 16.1792 16.6792 16.1453C16.3782 15.9571 16.0543 15.8031 15.7657 15.6151C16.1502 15.1555 16.5226 14.6957 16.8106 14.1866H16.4372C16.1389 14.6246 15.826 15.0842 15.4303 15.4722C14.9017 15.2603 14.422 15.0718 13.8819 14.9291L13.8218 14.8842C13.9058 14.6459 14.0615 14.4221 14.1091 14.186H13.7852L13.4613 14.8233C12.754 14.6701 11.9735 14.5866 11.2533 14.5401C11.217 14.4343 11.2646 14.2808 11.217 14.186H10.9049C10.8801 14.3279 10.941 14.4348 10.8688 14.5525C10.1247 14.5866 9.40473 14.6701 8.70929 14.8131L8.38405 14.186C8.26532 14.186 8.13177 14.1634 8.04885 14.1987L8.34824 14.8947L8.31243 14.9291C7.77451 15.0847 7.24564 15.2701 6.72824 15.4843L6.68058 15.4601C6.34377 15.0944 6.01961 14.6952 5.75522 14.294C5.69571 14.0923 5.45556 14.2103 5.32336 14.1866C5.61037 14.7062 5.99565 15.1655 6.37904 15.638C6.05515 15.8273 5.73233 16.0384 5.39471 16.1932C4.66055 15.6341 4.02056 14.9611 3.49901 14.1998C3.3547 14.1766 3.25966 14.1871 3.11454 14.1998C3.97879 15.5443 5.32336 16.7233 6.7277 17.4193C6.7277 17.4193 6.7277 17.4088 6.74062 17.4088C6.75086 17.4088 6.77482 17.4306 6.75086 17.443C7.69965 17.9031 8.70848 18.2332 9.77574 18.3754C13.4608 18.8584 16.9778 17.2906 19.017 14.1998C18.8896 14.1866 18.7611 14.1865 18.6336 14.1992ZM13.6299 15.2605L13.6651 15.2369C14.1826 15.3548 14.6737 15.5201 15.1301 15.7436C14.7456 16.1789 14.2534 16.5572 13.7979 16.8754C13.5222 17.0399 13.2451 17.2187 12.9568 17.3593L12.4417 17.1353L12.477 17.0537C12.9099 16.4762 13.2941 15.8857 13.6299 15.2605ZM11.2646 14.9065C11.9493 14.9194 12.6337 14.99 13.2688 15.1426L13.2815 15.1784C12.946 15.8146 12.5249 16.4293 12.0696 17.006C11.8645 17.0302 11.6733 16.9487 11.4695 16.936L11.2643 16.9118C11.2409 16.2158 11.2283 15.6025 11.2646 14.9065ZM8.94918 15.1187C9.57327 15.0007 10.2211 14.9065 10.8928 14.9065L10.9052 16.9018C10.6526 16.9589 10.3767 16.9589 10.1365 17.0195C9.64435 16.4401 9.23672 15.8146 8.88914 15.1655L8.94918 15.1187ZM7.01579 15.7562C7.48507 15.5314 7.97642 15.3653 8.4799 15.2366L8.52863 15.249C8.87568 15.8978 9.30834 16.5106 9.7402 17.1239C9.57354 17.219 9.36838 17.2758 9.20091 17.3716C8.38926 16.9707 7.6507 16.4363 7.01605 15.7907V15.7562H7.01579ZM8.56471 17.7728C7.55641 17.5125 6.61947 17.0644 5.75549 16.4522V16.4156C6.04357 16.2403 6.33273 16.051 6.6437 15.9199C7.32837 16.5941 8.03592 17.1013 8.80406 17.5838C8.74429 17.6546 8.64844 17.7257 8.56471 17.7728ZM13.0171 17.9252C11.7452 18.1982 10.3282 18.2087 9.0566 17.9026C9.03237 17.8439 9.11664 17.8312 9.15245 17.7968C10.2687 17.0766 12.0083 17.0766 13.1016 17.8541C13.1372 17.9252 13.0413 17.9026 13.0171 17.9252ZM14.1697 17.5962L13.6056 17.7725C13.5092 17.7254 13.4258 17.6546 13.341 17.5835L13.3652 17.5475C14.1336 17.1011 14.8293 16.5569 15.4898 15.9083C15.8139 16.0378 16.1262 16.2158 16.4151 16.4153C15.7423 16.9487 14.9618 17.3008 14.1697 17.5962ZM3.47558 4.23232C3.77246 3.82148 4.09721 3.43151 4.44753 3.06517C4.7585 2.77036 5.04766 2.48739 5.38421 2.27416C5.69652 2.47447 6.04411 2.6414 6.34404 2.82932C5.97222 3.28703 5.58802 3.74904 5.31205 4.24309C5.39552 4.27997 5.55221 4.2684 5.67256 4.24309C5.97222 3.80746 6.29531 3.3713 6.68085 2.98171C7.19564 3.17099 7.70046 3.37076 8.22924 3.51292L8.27582 3.55976L7.97696 4.24309C8.10943 4.2684 8.19343 4.25601 8.32455 4.24309C8.43224 4.04385 8.51571 3.82039 8.63579 3.61873C9.33284 3.77273 10.0652 3.85485 10.8093 3.87773C10.9046 3.96147 10.833 4.13755 10.8691 4.24309H11.193C11.2283 4.12732 11.1809 3.99593 11.2283 3.89093C11.9251 3.85431 12.6568 3.7835 13.3313 3.61819L13.3897 3.63057L13.7139 4.24255C13.8221 4.24255 13.9659 4.26786 14.0499 4.21832L13.7491 3.53607L13.7742 3.51238C14.3253 3.37076 14.8422 3.1586 15.3702 2.94671C15.7434 3.33576 16.0904 3.79562 16.4036 4.24228C16.5349 4.24228 16.6671 4.2552 16.7633 4.21805C16.615 3.95474 16.4421 3.7061 16.2469 3.47549C16.0883 3.24962 15.9115 3.03719 15.7181 2.84036V2.77924L16.5584 2.2965L16.6795 2.24939C17.4103 2.8025 18.0498 3.46679 18.5747 4.21805C18.7187 4.21805 18.8391 4.26759 18.9594 4.20809C17.3494 1.80407 14.6974 0.257299 11.8303 0.0346395L11.8176 0.0575246L11.7931 0.0346395C11.4695 -9.21749e-05 11.0718 -0.0138232 10.7243 0.0209084C10.5926 0.0106773 10.437 0.0209084 10.2806 0.0346395C7.40052 0.257299 4.74827 1.73245 3.09111 4.24363C3.21119 4.23232 3.35524 4.28024 3.47558 4.23232ZM8.45728 3.19602L8.40936 3.20626C7.91665 3.07783 7.43606 2.92302 6.97998 2.72324L7.00313 2.65243C7.6633 2.02753 8.35928 1.50818 9.12741 1.10809C9.30834 1.1789 9.48819 1.23732 9.66804 1.32106L9.63277 1.41313C9.17588 1.98069 8.81671 2.59266 8.45728 3.19602ZM10.8449 3.51345C10.5097 3.56057 10.2095 3.50295 9.87212 3.47684C9.54958 3.42945 9.1406 3.39526 8.81671 3.28756C9.16484 2.64193 9.57354 2.01569 10.0652 1.43925L10.8336 1.54398C10.8691 2.15623 10.8449 2.86432 10.8449 3.51345ZM11.2167 3.52611C11.193 2.89906 11.2054 2.20415 11.2167 1.55529C11.4577 1.52083 11.7204 1.48421 11.9611 1.44948C12.4291 2.0383 12.8862 2.64193 13.1986 3.28756C12.5496 3.44458 11.8844 3.52464 11.2167 3.52611ZM15.0466 2.69928C14.5776 2.89879 14.097 3.08779 13.5817 3.19602C13.2099 2.57086 12.802 1.94596 12.3445 1.34206C12.5128 1.24971 12.718 1.1789 12.8975 1.08493C13.6791 1.47371 14.4343 2.02753 15.0697 2.6624L15.0466 2.69928ZM13.5092 0.682694C14.5175 0.942777 15.4658 1.39025 16.33 2.00357L16.3061 2.05069L15.4787 2.51001H15.4176C14.7825 1.87542 14.0386 1.32106 13.2815 0.883545C13.3054 0.800889 13.4261 0.741388 13.5092 0.682694ZM13.0297 0.564229V0.589268C11.9848 1.34206 10.2929 1.41313 9.18934 0.717156C9.12741 0.67004 9.00895 0.647154 8.99603 0.564499C10.269 0.27103 11.7684 0.247337 13.0297 0.564229ZM5.70783 2.02753C6.46466 1.47371 7.30441 1.06097 8.19289 0.777735C8.22924 0.740849 8.25239 0.706117 8.29978 0.706117V0.730349C8.39563 0.753503 8.46805 0.646616 8.55178 0.716618C8.62421 0.777735 8.70902 0.824313 8.76825 0.883006C8.02462 1.34206 7.29202 1.88565 6.61974 2.54474C6.29558 2.42897 5.99672 2.251 5.70756 2.05069L5.70783 2.02753ZM10.8573 11.4613C9.72916 11.7685 8.50413 11.5343 7.68834 10.6838C7.59276 10.5659 7.53218 10.4253 7.4358 10.3079L5.81606 10.3192C5.79049 11.2742 5.77918 12.3714 5.81606 13.3153L7.61565 13.3037L7.63961 12.7373C7.8445 12.8315 8.04885 12.9491 8.25239 13.055C9.50058 13.5746 11.1074 13.6925 12.344 13.055C13.2449 12.5609 13.7252 11.6059 13.5927 10.5777C13.4613 9.57641 12.5007 8.66774 11.5293 8.42084L8.62394 7.58271L8.40909 7.47609C8.31297 7.39424 8.25266 7.2887 8.27608 7.15785C8.50413 6.76961 9.03291 6.88754 9.42896 6.89804C10.269 7.01623 11.133 7.2992 11.6254 8.06626C12.1528 8.06626 12.7648 8.07649 13.3404 8.05387C13.3649 7.08704 13.331 6.23841 13.3167 5.25919C12.7767 5.24681 12.1162 5.2468 11.5769 5.27157C11.5527 5.41185 11.6001 5.61162 11.54 5.75378L10.9884 5.45869C9.6675 4.9046 7.81892 4.84672 6.6192 5.70774C5.83868 6.27287 5.59933 7.28816 5.80341 8.18418C5.95876 9.03201 6.77482 9.65772 7.55534 9.95173C8.6234 10.3287 9.73912 10.6017 10.8212 10.9668C10.9283 11.0147 11.0721 11.1216 11.049 11.2511C11.0495 11.3558 10.9407 11.4164 10.8573 11.4613Z" fill="#28313B"/>
</g>
<defs>
<clipPath id="clip0_103_208">
<rect width="127" height="19" fill="white"/>
</clipPath>
</defs>
</svg>
