<svg width="31" height="21" viewBox="0 0 31 21" fill="none" xmlns="http://www.w3.org/2000/svg">
<path d="M9.28983 12.1738C7.40052 12.1738 3.6058 8.37336 2.11048 6.79254C2.61508 6.55586 2.96759 6.04577 2.96759 5.45296C2.96759 4.63499 2.30402 3.97324 1.48379 3.97324C0.663559 3.97095 0 4.63499 0 5.45067C0 6.26866 0.663559 6.93039 1.48379 6.93039C1.57365 6.93039 1.6612 6.9212 1.74645 6.90512L6.28538 20.5972H15.46V1.48022C15.46 1.48022 13.6237 12.1738 9.28983 12.1738Z" fill="#485EB0"/>
<path d="M11.7135 9.85117C11.7135 9.85117 10.2136 7.7143 9.38189 6.06455C9.81504 5.92669 10.1307 5.5223 10.1307 5.04436C10.1307 4.45386 9.64915 3.97363 9.05701 3.97363C8.46489 3.97363 7.98334 4.45386 7.98334 5.04436C7.98334 5.62338 8.44644 6.09442 9.02244 6.11279C8.8773 7.28464 8.51326 9.71791 7.84509 10.9035C7.84739 10.9035 9.78048 13.0841 11.7135 9.85117Z" fill="#485EB0"/>
<path d="M23.0751 10.9035C22.4069 9.71791 22.043 7.28464 21.8978 6.11279C22.4761 6.09442 22.937 5.62338 22.937 5.04436C22.937 4.45386 22.4577 3.97363 21.8633 3.97363C21.2711 3.97363 20.7896 4.45386 20.7896 5.04436C20.7896 5.5223 21.1052 5.92898 21.5384 6.06455C20.7067 7.71661 19.209 9.85117 19.209 9.85117C21.1421 13.0841 23.0751 10.9035 23.0751 10.9035Z" fill="#485EB0" fill-opacity="0.7"/>
<path d="M29.4386 3.97095C28.6205 3.97095 27.9548 4.63268 27.9548 5.45067C27.9548 6.04347 28.3048 6.55357 28.8117 6.79023C27.3164 8.37105 23.524 12.1715 21.6324 12.1715C17.2986 12.1738 15.46 1.48022 15.46 1.48022V20.5972H24.6346L29.1735 6.90512C29.2588 6.9212 29.3463 6.93039 29.4361 6.93039C30.2565 6.93039 30.92 6.26866 30.92 5.45067C30.9222 4.63499 30.2587 3.97095 29.4386 3.97095Z" fill="#485EB0" fill-opacity="0.7"/>
<path d="M16.9433 1.47973C16.9433 2.29771 16.2797 2.95946 15.4595 2.95946C14.6416 2.95946 13.9757 2.29771 13.9757 1.47973C13.9757 0.661741 14.6416 0 15.4595 0C16.2797 0 16.9433 0.661741 16.9433 1.47973Z" fill="#485EB0"/>
</svg>
