<svg width="49" height="49" viewBox="0 0 49 49" fill="none" xmlns="http://www.w3.org/2000/svg">
<g filter="url(#filter0_d_103_174)">
<path fill-rule="evenodd" clip-rule="evenodd" d="M24.5 46C36.9264 46 47 35.9264 47 23.5C47 11.0736 36.9264 1 24.5 1C12.0736 1 2 11.0736 2 23.5C2 35.9264 12.0736 46 24.5 46Z" fill="white"/>
</g>
<path fill-rule="evenodd" clip-rule="evenodd" d="M24 14.982C26.9371 14.982 27.285 14.9932 28.4449 15.0461C29.5174 15.0951 30.0998 15.2743 30.4875 15.4249C31.0009 15.6244 31.3674 15.8628 31.7523 16.2477C32.1372 16.6326 32.3756 16.9991 32.5751 17.5125C32.7257 17.9002 32.9049 18.4826 32.9539 19.5551C33.0068 20.715 33.018 21.0629 33.018 24C33.018 26.9372 33.0068 27.285 32.9539 28.4449C32.9049 29.5174 32.7257 30.0999 32.5751 30.4875C32.3756 31.0009 32.1372 31.3674 31.7523 31.7523C31.3674 32.1372 31.0009 32.3756 30.4875 32.5751C30.0998 32.7258 29.5174 32.905 28.4449 32.9539C27.2852 33.0068 26.9373 33.018 24 33.018C21.0627 33.018 20.7148 33.0068 19.5551 32.9539C18.4826 32.905 17.9001 32.7258 17.5125 32.5751C16.9991 32.3756 16.6326 32.1372 16.2477 31.7523C15.8628 31.3674 15.6244 31.0009 15.4249 30.4875C15.2742 30.0999 15.095 29.5174 15.0461 28.445C14.9932 27.285 14.982 26.9372 14.982 24C14.982 21.0629 14.9932 20.715 15.0461 19.5551C15.095 18.4826 15.2742 17.9002 15.4249 17.5125C15.6244 16.9991 15.8628 16.6326 16.2477 16.2477C16.6326 15.8628 16.9991 15.6244 17.5125 15.4249C17.9001 15.2743 18.4826 15.0951 19.555 15.0461C20.715 14.9932 21.0628 14.982 24 14.982ZM24 13C21.0125 13 20.638 13.0127 19.4647 13.0662C18.2938 13.1196 17.4943 13.3056 16.7945 13.5775C16.0712 13.8586 15.4577 14.2347 14.8462 14.8463C14.2347 15.4578 13.8586 16.0712 13.5775 16.7946C13.3055 17.4943 13.1196 18.2939 13.0662 19.4648C13.0126 20.638 13 21.0126 13 24C13 26.9875 13.0126 27.3621 13.0662 28.5353C13.1196 29.7062 13.3055 30.5057 13.5775 31.2055C13.8586 31.9288 14.2347 32.5423 14.8462 33.1538C15.4577 33.7653 16.0712 34.1414 16.7945 34.4225C17.4943 34.6945 18.2938 34.8804 19.4647 34.9338C20.638 34.9874 21.0125 35 24 35C26.9874 35 27.362 34.9874 28.5352 34.9338C29.7061 34.8804 30.5057 34.6945 31.2054 34.4225C31.9288 34.1414 32.5422 33.7653 33.1537 33.1538C33.7653 32.5423 34.1414 31.9288 34.4225 31.2055C34.6944 30.5057 34.8804 29.7062 34.9338 28.5353C34.9873 27.3621 35 26.9875 35 24C35 21.0126 34.9873 20.638 34.9338 19.4648C34.8804 18.2939 34.6944 17.4943 34.4225 16.7946C34.1414 16.0712 33.7653 15.4578 33.1537 14.8463C32.5422 14.2347 31.9288 13.8586 31.2054 13.5775C30.5057 13.3056 29.7061 13.1196 28.5352 13.0662C27.362 13.0127 26.9874 13 24 13ZM24.0218 18.369C20.8999 18.369 18.369 20.8999 18.369 24.0218C18.369 27.1438 20.8999 29.6746 24.0218 29.6746C27.1438 29.6746 29.6746 27.1438 29.6746 24.0218C29.6746 20.8999 27.1438 18.369 24.0218 18.369ZM24.0218 27.6912C21.9953 27.6912 20.3525 26.0483 20.3525 24.0218C20.3525 21.9953 21.9953 20.3525 24.0218 20.3525C26.0483 20.3525 27.6912 21.9953 27.6912 24.0218C27.6912 26.0483 26.0483 27.6912 24.0218 27.6912ZM31.1587 18.1071C31.1587 18.8304 30.5725 19.4167 29.8492 19.4167C29.126 19.4167 28.5397 18.8304 28.5397 18.1071C28.5397 17.3839 29.126 16.7976 29.8492 16.7976C30.5725 16.7976 31.1587 17.3839 31.1587 18.1071Z" fill="#E1306C"/>
<defs>
<filter id="filter0_d_103_174" x="0" y="0" width="49" height="49" filterUnits="userSpaceOnUse" color-interpolation-filters="sRGB">
<feFlood flood-opacity="0" result="BackgroundImageFix"/>
<feColorMatrix in="SourceAlpha" type="matrix" values="0 0 0 0 0 0 0 0 0 0 0 0 0 0 0 0 0 0 127 0" result="hardAlpha"/>
<feOffset dy="1"/>
<feGaussianBlur stdDeviation="1"/>
<feColorMatrix type="matrix" values="0 0 0 0 0 0 0 0 0 0 0 0 0 0 0 0 0 0 0.16 0"/>
<feBlend mode="normal" in2="BackgroundImageFix" result="effect1_dropShadow_103_174"/>
<feBlend mode="normal" in="SourceGraphic" in2="effect1_dropShadow_103_174" result="shape"/>
</filter>
</defs>
</svg>
