<svg width="131" height="27" viewBox="0 0 131 27" fill="none" xmlns="http://www.w3.org/2000/svg">
<path d="M69.812 5.11914H72.7667V18.0108C72.7667 18.5572 73.1108 18.881 73.6167 18.881C73.9405 18.881 74.1429 18.8001 74.3655 18.6786V21.1072C74.0215 21.2691 73.5762 21.431 72.6453 21.431C71.1274 21.431 69.812 20.5405 69.812 18.9417V5.11914Z" fill="#DB631A"/>
<path d="M75.6875 5.11914H78.6423V18.0108C78.6423 18.5572 78.9863 18.881 79.4923 18.881C79.8161 18.881 80.0185 18.8001 80.2411 18.6786V21.1072C79.897 21.2691 79.4518 21.431 78.5209 21.431C77.003 21.431 75.6875 20.5405 75.6875 18.9417V5.11914Z" fill="#DB631A"/>
<path fill-rule="evenodd" clip-rule="evenodd" d="M88.0917 21.2489C88.9537 21.2489 89.718 21.1384 90.3848 20.9174C91.0515 20.6964 91.5967 20.387 92.0203 19.9891C92.4439 19.5913 92.7644 19.1235 92.9817 18.5857C93.199 18.0479 93.3077 17.4548 93.3077 16.8065C93.3077 15.753 93.0277 14.8745 92.4678 14.1709C91.9079 13.4674 91.1123 12.9867 90.0809 12.7288V12.6846C90.6408 12.471 91.1049 12.1671 91.4733 11.773C91.8416 11.3788 92.1032 10.9589 92.2579 10.5132C92.4126 10.0675 92.4899 9.59412 92.4899 9.09316C92.4899 7.81865 92.0424 6.84619 91.1473 6.17578C90.2522 5.50537 88.95 5.17017 87.2408 5.17017H81.6302V21.2489H88.0917ZM86.843 11.7564H84.5665V7.98811H86.633C87.2371 7.98811 87.7381 8.06731 88.1359 8.2257C88.5338 8.3841 88.8211 8.59959 88.9979 8.87217C89.1747 9.14475 89.2631 9.47259 89.2631 9.85568C89.2631 10.283 89.1471 10.6421 88.915 10.9331C88.6829 11.2241 88.3901 11.4341 88.0365 11.563C87.6828 11.6919 87.285 11.7564 86.843 11.7564ZM84.5665 18.4532H87.1303C87.7049 18.4532 88.2041 18.3777 88.6277 18.2266C89.0513 18.0756 89.3847 17.8472 89.6278 17.5415C89.8709 17.2358 89.9924 16.8582 89.9924 16.4088C89.9924 15.7605 89.7512 15.2503 89.2686 14.8783C88.7861 14.5062 88.0844 14.3202 87.1635 14.3202H84.5665V18.4532Z" fill="#DB631A"/>
<path fill-rule="evenodd" clip-rule="evenodd" d="M122.841 18.7094V21.2489H119.993V5.14551H122.841V14.9054H122.883L126.894 10.3682H130.17L126.262 14.8523L130.157 21.2489H126.9L124.371 17.0199H124.339L122.841 18.7094ZM66.9631 9.12513C67.4448 9.12513 67.8592 8.95512 68.2063 8.6151C68.5534 8.27507 68.7269 7.86422 68.7269 7.38252C68.7269 6.9079 68.5534 6.50059 68.2063 6.16057C67.8592 5.82054 67.4448 5.65053 66.9631 5.65053C66.4743 5.65053 66.0581 5.82054 65.7146 6.16057C65.371 6.50059 65.1992 6.9079 65.1992 7.38252C65.1992 7.70129 65.2771 7.99349 65.433 8.25914C65.5888 8.52478 65.8031 8.73552 66.0758 8.89136C66.3486 9.04721 66.6443 9.12513 66.9631 9.12513ZM68.3868 21.2492V10.4059H65.5391V21.2492H68.3868ZM103.267 20.7443C102.41 21.2012 101.436 21.4296 100.345 21.4296C99.6793 21.4296 99.0524 21.3411 98.4644 21.164C97.8765 20.9869 97.3541 20.7354 96.8972 20.4096C96.4403 20.0837 96.0453 19.6959 95.7124 19.2461C95.3795 18.7962 95.1262 18.2915 94.9527 17.7319C94.7791 17.1723 94.6923 16.5773 94.6923 15.9468C94.6923 15.1605 94.8287 14.4273 95.1014 13.7473C95.3741 13.0672 95.7549 12.4846 96.2437 11.9994C96.7325 11.5141 97.331 11.1334 98.0394 10.8571C98.7478 10.5808 99.5164 10.4427 100.345 10.4427C101.16 10.4427 101.918 10.5773 102.619 10.8465C103.32 11.1157 103.919 11.4893 104.415 11.9675C104.911 12.4456 105.299 13.0265 105.578 13.7101C105.858 14.3937 105.998 15.1392 105.998 15.9468C105.998 17.0164 105.757 17.9692 105.276 18.8051C104.794 19.641 104.124 20.2874 103.267 20.7443ZM100.345 18.8795C99.5375 18.8795 98.8734 18.5979 98.3527 18.0347C97.832 17.4716 97.5717 16.7756 97.5717 15.9468C97.5717 15.0967 97.8285 14.3937 98.3421 13.8376C98.8556 13.2815 99.5233 13.0035 100.345 13.0035C101.138 13.0035 101.797 13.278 102.321 13.827C102.846 14.376 103.108 15.0826 103.108 15.9468C103.108 16.7968 102.842 17.4981 102.311 18.0507C101.779 18.6032 101.124 18.8795 100.345 18.8795ZM115.848 20.7443C114.991 21.2012 114.017 21.4296 112.926 21.4296C112.26 21.4296 111.634 21.3411 111.046 21.164C110.458 20.9869 109.935 20.7354 109.478 20.4096C109.021 20.0837 108.626 19.6959 108.294 19.2461C107.961 18.7962 107.707 18.2915 107.534 17.7319C107.36 17.1723 107.273 16.5773 107.273 15.9468C107.273 15.1605 107.41 14.4273 107.683 13.7473C107.955 13.0672 108.336 12.4846 108.825 11.9994C109.314 11.5141 109.912 11.1334 110.621 10.8571C111.329 10.5808 112.098 10.4427 112.926 10.4427C113.741 10.4427 114.499 10.5773 115.2 10.8465C115.902 11.1157 116.5 11.4893 116.996 11.9675C117.492 12.4456 117.88 13.0265 118.159 13.7101C118.439 14.3937 118.579 15.1392 118.579 15.9468C118.579 17.0164 118.338 17.9692 117.857 18.8051C117.375 19.641 116.706 20.2874 115.848 20.7443ZM112.926 18.8795C112.119 18.8795 111.455 18.5979 110.934 18.0347C110.413 17.4716 110.153 16.7756 110.153 15.9468C110.153 15.0967 110.41 14.3937 110.924 13.8376C111.437 13.2815 112.105 13.0035 112.926 13.0035C113.72 13.0035 114.379 13.278 114.903 13.827C115.427 14.376 115.689 15.0826 115.689 15.9468C115.689 16.7968 115.423 17.4981 114.892 18.0507C114.361 18.6032 113.706 18.8795 112.926 18.8795Z" fill="#DB631A"/>
<path d="M10.4067 11.9596L8.11374 20.704C8.0226 21.0516 7.66694 21.2594 7.31936 21.1683C7.20911 21.1394 7.10839 21.082 7.02729 21.002L0.46304 14.5214C0.20734 14.2689 0.204699 13.8569 0.457142 13.6012C0.540178 13.5171 0.644544 13.4572 0.759041 13.428L9.61626 11.1642C9.9644 11.0752 10.3188 11.2853 10.4077 11.6335C10.4351 11.7405 10.4347 11.8527 10.4067 11.9596Z" fill="#FF9C60"/>
<path d="M16.2768 6.09047L12.7889 19.3726C12.6976 19.7202 12.3419 19.9279 11.9943 19.8367C11.8842 19.8077 11.7835 19.7504 11.7025 19.6704L1.73687 9.83175C1.48117 9.57929 1.47853 9.16734 1.73097 8.91162C1.81395 8.82759 1.91824 8.76772 2.03265 8.73843L15.4862 5.29491C15.8343 5.20581 16.1887 5.41577 16.2778 5.76388C16.3053 5.87106 16.3049 5.98347 16.2768 6.09047Z" fill="#DB631A"/>
<path opacity="0.2" d="M9.08949 17.0979L4.45186 12.4603L9.60151 11.1579C9.94987 11.0698 10.3037 11.2808 10.3918 11.6292C10.4183 11.7339 10.4183 11.8435 10.3918 11.9482L9.08949 17.0979Z" fill="black"/>
<path fill-rule="evenodd" clip-rule="evenodd" d="M58.7138 21.2489C59.5758 21.2489 60.3401 21.1384 61.0069 20.9174C61.6736 20.6964 62.2188 20.387 62.6424 19.9891C63.066 19.5913 63.3864 19.1235 63.6038 18.5857C63.8211 18.0479 63.9298 17.4548 63.9298 16.8065C63.9298 15.753 63.6498 14.8745 63.0899 14.1709C62.53 13.4674 61.7344 12.9867 60.703 12.7288V12.6846C61.2629 12.471 61.727 12.1671 62.0954 11.773C62.4637 11.3788 62.7252 10.9589 62.88 10.5132C63.0347 10.0675 63.112 9.59412 63.112 9.09316C63.112 7.81865 62.6645 6.84619 61.7694 6.17578C60.8743 5.50537 59.5721 5.17017 57.8629 5.17017H52.2552V21.2489H58.7138ZM57.465 11.7564H55.1886V7.98811H57.255C57.8591 7.98811 58.3601 8.06731 58.7579 8.2257C59.1558 8.3841 59.4431 8.59959 59.6199 8.87217C59.7967 9.14475 59.8851 9.47259 59.8851 9.85568C59.8851 10.283 59.7691 10.6421 59.537 10.9331C59.3049 11.2241 59.0121 11.4341 58.6585 11.563C58.3049 11.6919 57.907 11.7564 57.465 11.7564ZM55.1886 18.4532H57.7523C58.327 18.4532 58.8261 18.3777 59.2497 18.2266C59.6733 18.0756 60.0067 17.8472 60.2498 17.5415C60.4929 17.2358 60.6144 16.8582 60.6144 16.4088C60.6144 15.7605 60.3732 15.2503 59.8906 14.8783C59.4081 14.5062 58.7064 14.3202 57.7855 14.3202H55.1886V18.4532Z" fill="#DB631A"/>
<path d="M44.2942 26.9071C47.7807 26.9071 49.7698 25.4544 49.7698 21.8784V10.3684H46.4185V15.7481C46.4185 17.0667 46.0163 18.3248 44.7647 18.3248C43.5131 18.3248 43.0885 17.1784 43.0885 15.7481V10.3684H39.8478V17.5203C39.8478 20.3587 41.5484 21.2303 44.2059 21.2526C45.5245 21.2637 46.0386 21.1902 46.642 20.5421V21.8114C46.642 23.5323 46.0374 24.091 44.2942 24.091C42.8191 24.091 40.7182 24.091 40.7182 24.091V26.9071C40.7182 26.9071 42.8861 26.9071 44.2942 26.9071Z" fill="#28313B"/>
<path d="M34.7184 10.4001C33.1989 10.4001 31.9982 10.9102 31.1269 11.9302H31.0738C30.4469 10.9102 29.4268 10.4001 28.0242 10.4001C27.4717 10.4001 26.9298 10.5277 26.4198 10.7614C25.8991 11.0058 25.4422 11.3565 25.049 11.8027H24.9959V10.602H21.5957V21.249H24.9959V15.9149C24.9959 15.1179 25.1553 14.5017 25.4953 14.0766C25.8353 13.6516 26.271 13.4391 26.8235 13.4391C27.8648 13.4391 28.3855 14.2466 28.3855 15.8405V21.249H31.7751V15.9149C31.7751 15.1286 31.9345 14.5123 32.2745 14.0873C32.6039 13.6622 33.0289 13.4391 33.5496 13.4391C34.5803 13.4391 35.1009 14.2466 35.1009 15.8405V21.249H38.4905V15.0436C38.4905 14.2254 38.3949 13.5135 38.2142 12.9078C38.0336 12.3128 37.7786 11.824 37.4386 11.4627C37.0985 11.1014 36.6948 10.8358 36.2485 10.6658C35.8022 10.4958 35.2922 10.4001 34.7184 10.4001Z" fill="#28313B"/>
</svg>
