<svg width="101" height="101" viewBox="0 0 101 101" fill="none" xmlns="http://www.w3.org/2000/svg">
<path d="M99.5634 50.2418C99.5634 51.0399 97.648 51.7582 97.5682 52.4765C97.5682 53.2745 99.4038 54.1524 99.324 54.8707C99.2442 55.6688 97.249 56.1476 97.1692 56.9457C97.0894 57.7438 98.8452 58.7813 98.6855 59.4996C98.5259 60.2179 96.4509 60.6169 96.2913 61.3352C96.1317 62.0535 97.8076 63.3304 97.5682 64.0487C97.3288 64.767 95.2538 64.9266 95.0144 65.6448C94.7749 66.3631 96.2913 67.7997 96.0519 68.4381C95.7326 69.1564 93.6576 69.0766 93.3384 69.7949C93.0191 70.5132 94.4557 72.0295 94.0567 72.668C93.7374 73.3863 91.6624 73.067 91.2634 73.7853C90.8643 74.4238 92.1412 76.0998 91.7422 76.7382C91.3432 77.3767 89.2681 76.8978 88.8691 77.5363C88.3903 78.1748 89.5076 79.9306 89.0287 80.569C88.5499 81.2075 86.5547 80.569 86.0758 81.1277C85.597 81.6863 86.4748 83.6017 85.996 84.1604C85.4373 84.7191 83.5219 83.921 83.0431 84.3998C82.4844 84.9585 83.2027 86.8739 82.644 87.3527C82.0854 87.8316 80.2498 86.8739 79.6113 87.3527C78.9729 87.8316 79.5315 89.8268 78.893 90.3057C78.2546 90.7845 76.5786 89.5874 75.9401 89.9864C75.3017 90.3855 75.6209 92.4605 74.9824 92.8595C74.344 93.2586 72.7478 91.9018 72.0295 92.3009C71.3112 92.6201 71.4709 94.6951 70.8324 95.0144C70.1141 95.3336 68.6776 93.897 67.9593 94.1365C67.241 94.4557 67.241 96.5307 66.4429 96.7701C65.7247 97.0096 64.3679 95.4134 63.6496 95.6528C62.9314 95.8923 62.6919 97.9673 61.8938 98.1269C61.1756 98.2865 59.9784 96.6105 59.2602 96.6903C58.5419 96.85 58.063 98.8452 57.3448 99.0048C56.6265 99.0846 55.589 97.249 54.8707 97.3288C54.0726 97.4086 53.514 99.4038 52.7159 99.4038C51.9178 99.4038 51.1197 97.4884 50.4014 97.4884C49.6033 97.4884 48.8053 99.4038 48.087 99.4038C47.2889 99.4038 46.6504 97.4086 45.9322 97.3288C45.1341 97.249 44.1764 99.0846 43.4581 99.0048C42.66 98.925 42.261 96.85 41.5427 96.6903C40.8244 96.5307 39.6273 98.2865 38.909 98.1269C38.1907 97.9673 37.9513 95.8923 37.1532 95.6528C36.435 95.4134 35.0782 97.0096 34.3599 96.7701C33.6417 96.5307 33.5618 94.4557 32.8436 94.1365C32.1253 93.8172 30.6887 95.3336 29.9705 95.0144C29.2522 94.6951 29.4118 92.6201 28.7733 92.3009C28.0551 91.9816 26.4589 93.2586 25.8204 92.8595C25.182 92.4605 25.5012 90.4653 24.8627 89.9864C24.2243 89.5874 22.4685 90.7047 21.9098 90.3057C21.2713 89.8268 21.83 87.8316 21.1915 87.3527C20.5531 86.8739 18.7973 87.9114 18.1588 87.3527C17.6002 86.8739 18.3184 84.8787 17.7598 84.3998C17.2011 83.8412 15.2857 84.7191 14.8069 84.1604C14.2482 83.6017 15.2059 81.7662 14.7271 81.1277C14.2482 80.569 12.253 81.2075 11.7741 80.569C11.2953 79.9306 12.4126 78.1748 11.9338 77.5363C11.4549 76.8978 9.4597 77.3767 9.06065 76.7382C8.66161 76.0998 9.85874 74.4238 9.5395 73.7853C9.14046 73.1468 7.06544 73.3863 6.74621 72.668C6.42697 71.9497 7.78372 70.4334 7.46448 69.7949C7.14525 69.0766 5.07023 69.1564 4.751 68.4381C4.27215 67.7997 5.78851 66.4429 5.54908 65.7247C5.30966 65.0064 3.23464 64.8468 2.99521 64.1285C2.75579 63.4102 4.43176 62.1333 4.27215 61.415C4.11253 60.6967 2.03751 60.2977 1.87789 59.5794C1.71828 58.8611 3.47406 57.7438 3.39425 57.0255C3.31445 56.3073 1.23943 55.7486 1.23943 54.9505C1.15962 54.1524 3.07502 53.2745 2.99521 52.5563C2.99521 51.7582 1 51.0399 1 50.3216C1 49.5235 2.9154 48.8053 2.99521 48.087C2.99521 47.2889 1.15962 46.411 1.23943 45.6927C1.31923 44.8947 3.31445 44.4158 3.39425 43.6177C3.47406 42.8196 1.71828 41.7821 1.87789 41.0638C2.03751 40.3456 4.11253 39.9465 4.27215 39.2283C4.43176 38.51 2.75579 37.233 2.99521 36.5148C3.23464 35.7965 5.30966 35.6369 5.54908 34.9186C5.78851 34.2003 4.27215 32.7638 4.51157 32.1253C4.83081 31.407 6.90583 31.4868 7.22506 30.7686C7.54429 30.0503 6.10774 28.5339 6.50678 27.8955C6.82602 27.1772 8.90104 27.4964 9.30008 26.7781C9.69912 26.1397 8.42219 24.4637 8.82123 23.8252C9.22027 23.1868 11.2953 23.6656 11.6943 23.0271C12.1732 22.3887 11.0559 20.6329 11.5347 19.9944C12.0136 19.3559 14.0088 19.9944 14.4876 19.4358C14.9665 18.8771 14.0886 16.9617 14.5674 16.403C15.1261 15.8444 17.0415 16.6425 17.5203 16.1636C18.079 15.6049 17.3607 13.6895 17.9194 13.2107C18.4781 12.7318 20.3136 13.6895 20.9521 13.2107C21.5906 12.7318 21.0319 10.7366 21.6704 10.2578C22.3089 9.77893 23.9848 10.9761 24.6233 10.577C25.2618 10.178 24.9425 8.10295 25.581 7.70391C26.2195 7.30487 27.8156 8.66161 28.5339 8.26257C29.2522 7.94334 29.0926 5.86832 29.731 5.54908C30.4493 5.22985 31.8859 6.6664 32.6041 6.42698C33.3224 6.10774 33.3224 4.03272 34.1205 3.7933C34.8388 3.39425 36.1955 4.99042 36.9138 4.751C37.6321 4.51157 37.8715 2.43655 38.6696 2.27694C39.3879 2.11732 40.585 3.7933 41.3033 3.71349C42.0215 3.55387 42.5004 1.55866 43.2187 1.39904C43.9369 1.31923 44.9745 3.15483 45.6927 3.07502C46.4908 2.99521 47.1293 1 47.9274 1C48.7255 1 49.5235 2.9154 50.2418 2.9154C51.0399 2.9154 51.838 1 52.5563 1C53.3543 1 53.9928 2.99521 54.7111 3.07502C55.5092 3.15483 56.4669 1.31923 57.1851 1.39904C57.9832 1.47885 58.3823 3.55387 59.1006 3.71349C59.8188 3.8731 61.016 2.11732 61.7342 2.27694C62.4525 2.43655 62.6919 4.51157 63.49 4.751C64.3679 4.99042 65.6448 3.39425 66.3631 3.63368C67.0814 3.8731 67.1612 5.94812 67.8795 6.26736C68.5978 6.58659 70.0343 5.07023 70.7526 5.38947C71.4709 5.7087 71.3112 7.78372 71.9497 8.10295C72.668 8.42219 74.2642 7.14525 74.9026 7.54429C75.5411 7.94334 75.2219 9.93855 75.8603 10.4174C76.4988 10.8164 78.2546 9.69912 78.8132 10.0982C79.4517 10.577 78.893 12.5722 79.5315 13.0511C80.17 13.5299 81.9258 12.4924 82.5642 13.0511C83.1229 13.5299 82.4046 15.5251 82.9633 16.004C83.5219 16.5626 85.4373 15.6848 85.9162 16.2434C86.4749 16.8021 85.5171 18.6377 85.996 19.2761C86.4748 19.8348 88.4701 19.1963 88.9489 19.8348C89.4278 20.4733 88.3104 22.229 88.7893 22.8675C89.2681 23.506 91.2634 23.0271 91.6624 23.6656C92.0614 24.3041 90.8643 25.98 91.1835 26.6185C91.5826 27.257 93.6576 27.0176 93.9768 27.7358C94.2961 28.4541 92.9393 29.9705 93.2586 30.6089C93.5778 31.3272 95.6528 31.2474 95.9721 31.9657C96.2913 32.684 94.6951 34.0407 94.9345 34.759C95.174 35.4773 97.249 35.6369 97.4884 36.3551C97.7278 37.0734 96.0519 38.3504 96.2115 39.0686C96.3711 39.7869 98.4461 40.186 98.6057 40.9042C98.7654 41.6225 97.0096 42.7398 97.0894 43.4581C97.1692 44.1764 99.2442 44.735 99.2442 45.5331C99.324 46.3312 97.4086 47.2091 97.4884 47.9274C97.5682 48.7255 99.5634 49.4437 99.5634 50.2418Z" stroke="#263238" stroke-width="2" stroke-miterlimit="10"/>
<path d="M50 97.25C76.0955 97.25 97.25 76.0955 97.25 50C97.25 23.9045 76.0955 2.75 50 2.75C23.9045 2.75 2.75 23.9045 2.75 50C2.75 76.0955 23.9045 97.25 50 97.25Z" fill="white" stroke="#28313B" stroke-width="1.5" stroke-miterlimit="1.5728" stroke-linejoin="round"/>
<path d="M24.5434 23.0694C23.9848 22.5108 23.3463 21.8723 22.7079 21.154C23.0271 21.9521 23.4261 22.9098 23.6656 23.6281C24.0646 24.6656 24.2242 25.1445 24.7031 26.1022C24.304 26.5012 24.1444 26.6608 23.7454 27.0599C22.7877 26.6608 22.3088 26.4214 21.3511 26.0224C20.6328 25.7031 19.7549 25.3041 18.9569 24.905C19.5953 25.5435 20.3136 26.182 20.8723 26.7406C21.5905 27.4589 21.9098 27.7781 22.628 28.4166C22.229 28.8955 21.9896 29.2147 21.5905 29.6936C19.6751 27.9378 18.7174 27.0599 16.8818 25.3041C17.6001 24.4262 17.9193 24.0272 18.7174 23.1493C19.5953 23.4685 19.9944 23.6281 20.8723 23.9473C21.5905 24.2666 22.3886 24.6656 23.0271 25.0647C22.628 24.3464 22.229 23.5483 21.9896 22.83C21.6703 21.9521 21.5107 21.5531 21.1915 20.5954C21.9896 19.8771 22.3886 19.4781 23.1867 18.8396C24.9425 20.6752 25.8204 21.6329 27.5762 23.5483C27.0175 23.9473 26.7781 24.1868 26.2992 24.6656C25.581 24.107 25.1819 23.7877 24.5434 23.0694Z" fill="#28313B"/>
<path d="M33.0032 16.4452C33.9609 18.3606 33.1628 20.1164 31.3272 21.2337C29.4118 22.351 27.5762 22.1116 26.4589 20.5952C25.2617 19.0788 25.7406 16.8442 27.9752 15.4875C30.2099 14.1307 32.2051 14.849 33.0032 16.4452ZM27.9752 19.4779C28.6935 20.5154 29.8108 20.8346 30.7685 20.276C31.806 19.6375 31.8858 18.5202 31.3272 17.4029C30.7685 16.3654 29.6512 15.8067 28.5339 16.525C27.3368 17.2433 27.2569 18.4404 27.9752 19.4779Z" fill="#28313B"/>
<path d="M35.3974 18.9192C34.3599 16.525 33.8012 15.4077 32.7637 13.0134C33.5618 12.6144 34.0406 12.4548 34.8387 12.1355C35.8762 12.774 36.3551 13.0932 37.3128 13.8115C37.9513 14.2904 38.6695 14.9288 39.2282 15.5673C38.909 14.7692 38.5897 13.9711 38.2705 13.0134C38.0311 12.2951 37.9513 11.8961 37.7118 11.1778C38.4301 10.9384 38.7493 10.8586 39.3878 10.699C40.0263 13.173 40.3455 14.45 40.984 16.924C40.3455 17.0837 39.9465 17.1635 39.308 17.4029C38.4301 16.6048 37.9513 16.2856 36.9936 15.5673C36.3551 15.0884 35.557 14.45 34.8387 13.8913C35.2378 14.6894 35.557 15.4875 35.956 16.4452C36.2753 17.1635 36.3551 17.5625 36.6743 18.2808C36.2753 18.6 35.956 18.6798 35.3974 18.9192Z" fill="#28313B"/>
<path d="M46.4908 13.253C45.3735 13.3328 44.8148 13.4126 43.6177 13.652C43.6975 14.2905 43.7773 14.5299 43.8571 15.1684C45.0542 14.929 45.6927 14.8491 46.8898 14.7693C46.9696 15.2482 46.9696 15.4876 46.9696 15.9665C45.134 16.1261 44.1763 16.2857 42.4206 16.6847C41.8619 14.1309 41.6225 12.9337 41.0638 10.3799C43.1388 9.90102 44.1763 9.7414 46.2514 9.58179C46.3312 10.0606 46.3312 10.3001 46.3312 10.7789C45.0542 10.8587 44.4158 11.0183 43.1388 11.178C43.2186 11.7366 43.2984 11.976 43.3783 12.5347C44.5754 12.3751 45.134 12.2953 46.3312 12.1357C46.411 12.5347 46.4908 12.7741 46.4908 13.253Z" fill="#28313B"/>
<path d="M49.9225 15.8068C49.9225 14.7693 49.9225 14.2106 49.9225 13.1731C48.9648 11.6568 48.4062 10.9385 47.209 9.50193C48.0869 9.42212 48.5658 9.42212 49.4437 9.42212C49.8427 10.0606 50.0023 10.3798 50.3216 10.9385C50.561 11.4173 50.7206 11.7366 50.96 12.2154C51.1197 11.8164 51.3591 11.4173 51.5985 11.0183C51.9177 10.3798 52.1572 10.1404 52.4764 9.50193C53.3543 9.58174 53.7533 9.58174 54.6312 9.66154C53.3543 11.0183 52.7956 11.7366 51.6783 13.2529C51.6783 14.2904 51.5985 14.8491 51.5985 15.9664C50.8802 15.8068 50.561 15.8068 49.9225 15.8068Z" fill="#28313B"/>
<path d="M58.0629 10.1404C58.5418 10.1404 59.5793 10.3 60.537 10.5394C61.6543 10.8587 62.3726 11.0981 62.8514 11.5769C63.3303 11.976 63.5697 12.5346 63.4101 13.0933C63.2504 13.5721 62.6918 13.9712 61.7341 13.9712C62.5322 14.45 63.011 15.1683 62.7716 15.9664C62.612 16.5251 62.1331 16.8443 61.5745 17.0039C60.936 17.1635 60.0581 17.1635 58.6216 16.7645C57.8235 16.6049 57.2648 16.4452 56.8658 16.2856C57.3446 13.8914 57.5841 12.6144 58.0629 10.1404ZM59.3398 12.9337C59.5793 13.0135 59.6591 13.0135 59.8985 13.0933C60.8562 13.3327 61.4149 13.1731 61.5745 12.6943C61.7341 12.2154 61.335 11.8164 60.4572 11.6567C60.0581 11.5769 59.8187 11.4971 59.6591 11.4971C59.5793 12.0558 59.4995 12.375 59.3398 12.9337ZM58.7014 15.727C58.861 15.8068 59.0206 15.8068 59.3398 15.8866C60.0581 16.0462 60.7764 16.0462 61.0158 15.3279C61.1754 14.6895 60.6168 14.2904 59.7389 14.051C59.4995 13.9712 59.4196 13.9712 59.1802 13.8914C58.9408 14.6895 58.861 15.0087 58.7014 15.727Z" fill="#28313B"/>
<path d="M65.3256 17.2432C64.8467 17.8019 64.6073 18.0413 64.2083 18.6C63.5698 18.3605 63.2506 18.2009 62.6121 17.9615C64.3679 15.8067 65.2458 14.7692 67.241 12.8538C68.1987 13.2528 68.6775 13.4922 69.5554 13.9711C69.3958 16.7644 69.1564 18.1211 68.6775 20.8346C68.0391 20.4356 67.7198 20.2759 67.0814 19.9567C67.1612 19.2384 67.241 18.9192 67.3208 18.2009C66.6025 17.8019 66.2035 17.5625 65.3256 17.2432ZM67.64 17.0836C67.7198 16.5249 67.7198 16.2057 67.7996 15.6471C67.7996 15.248 67.8795 14.7692 67.9593 14.3701C67.7198 14.6894 67.4006 15.0884 67.0814 15.3278C66.6823 15.7269 66.4429 15.9663 66.0439 16.3653C66.6823 16.6048 67.0016 16.7644 67.64 17.0836Z" fill="#28313B"/>
<path d="M73.9449 24.2664C73.6257 24.1866 72.9872 23.7875 72.2689 23.2289C70.1939 21.6327 69.715 19.7971 70.6727 18.2807C71.7901 16.3653 74.2641 16.4451 76.4189 18.0413C77.217 18.6798 77.7757 19.3182 77.9353 19.6375C77.5363 19.8769 77.2968 20.0365 76.8978 20.276C76.6584 19.9567 76.3391 19.4779 75.7805 19.0788C74.5834 18.1211 73.1468 18.0413 72.3487 19.2384C71.6304 20.276 71.9497 21.4731 73.2266 22.4308C73.6257 22.75 74.1843 23.0692 74.5035 23.2289C74.2641 23.6279 74.1045 23.8673 73.9449 24.2664Z" fill="#28313B"/>
<path d="M78.9728 20.4358C79.6113 20.9945 79.8507 21.2339 80.4892 21.8723C79.6911 22.6704 79.292 23.0695 78.494 23.8676C78.8132 23.7877 79.1324 23.7877 79.3718 23.7877C80.569 23.7877 81.1276 23.7877 82.3248 23.7877C83.043 24.5858 83.3623 24.9849 84.0007 25.783C82.4046 25.4637 81.5267 25.3839 80.0103 25.2243C79.6911 27.1397 79.5315 28.0176 79.0526 29.8532C78.5738 29.2147 78.2545 28.8955 77.6959 28.257C78.0151 26.9003 78.1747 26.2618 78.4141 24.9051C78.0151 24.9051 77.8555 24.9051 77.4564 24.9051C76.8978 25.4637 76.5785 25.783 75.9401 26.4214C75.4612 25.9426 75.2218 25.7031 74.6631 25.2243C76.4189 23.3089 77.2968 22.3512 78.9728 20.4358Z" fill="#28313B"/>
<path d="M25.5012 81.0477C24.9426 80.7284 23.905 80.09 23.0271 79.2121C21.83 78.0149 21.2714 76.8976 21.1117 75.8601C21.0319 74.8226 21.3512 73.9447 22.1493 73.3861C23.8252 72.1091 25.9801 72.9072 27.8157 74.663C28.5339 75.3813 29.0128 76.0197 29.1724 76.339C28.7734 76.5784 28.5339 76.738 28.1349 76.9774C27.8955 76.5784 27.5762 76.0995 26.9378 75.5409C25.9003 74.5034 24.6233 74.0245 23.506 74.9822C22.4685 75.8601 22.7079 77.2967 23.905 78.4938C24.2243 78.813 24.5435 79.0525 24.7031 79.1323C25.1022 78.7332 25.2618 78.5736 25.6608 78.1746C25.2618 77.7755 25.1022 77.6159 24.7031 77.2169C25.0224 76.8976 25.182 76.738 25.5012 76.4188C26.3791 77.2967 26.858 77.7755 27.8157 78.5736C26.858 79.4515 26.3791 80.0102 25.5012 81.0477Z" fill="#28313B"/>
<path d="M31.8859 78.1747C31.008 79.3718 30.6089 80.0103 29.731 81.2074C29.0926 82.0853 29.2522 82.9632 30.0503 83.442C30.9282 84.0007 31.6464 83.8411 32.2849 82.8036C33.0032 81.5266 33.4022 80.8882 34.2003 79.6112C34.759 79.9305 35.0782 80.0901 35.6369 80.4093C34.9984 81.6863 34.5994 82.3247 33.9609 83.6017C33.0032 85.3575 31.3272 85.5969 29.4118 84.3199C27.4964 83.1228 27.0176 81.5266 28.2945 79.9305C29.1724 78.8132 29.6512 78.2545 30.5291 77.0574C31.0878 77.616 31.3272 77.7756 31.8859 78.1747Z" fill="#28313B"/>
<path d="M36.435 86.1556C35.9561 86.7142 35.7167 86.9536 35.2378 87.4325C34.5196 87.1133 34.1205 86.9536 33.4023 86.5546C35.5571 84.719 36.5148 83.7613 38.3504 81.6863C39.1485 82.0055 39.5475 82.1651 40.3456 82.4844C40.3456 85.1979 40.5052 86.6344 40.8244 89.3479C40.0264 89.1085 39.6273 89.0287 38.8292 88.7094C38.7494 87.9912 38.7494 87.6719 38.7494 86.9536C37.7119 86.6344 37.3129 86.4748 36.435 86.1556ZM38.7494 85.8363C38.7494 85.2777 38.7494 84.9584 38.7494 84.3998C38.7494 84.0007 38.8292 83.5219 38.8292 83.1228C38.5898 83.4421 38.2706 83.8411 38.0311 84.1603C37.6321 84.6392 37.4725 84.7988 37.0734 85.2777C37.7119 85.5171 38.0311 85.5969 38.7494 85.8363Z" fill="#28313B"/>
<path d="M43.3783 83.4419C43.937 83.5217 44.6552 83.6015 45.5331 83.7611C46.5706 83.9207 47.2889 84.1602 47.7678 84.5592C48.1668 84.8784 48.4062 85.3573 48.3264 85.9958C48.2466 86.7938 47.5283 87.3525 46.8101 87.4323C47.3687 87.6717 47.6082 88.1506 47.7678 88.7093C47.9274 89.4275 48.1668 90.3054 48.3264 90.5448C47.5283 90.465 47.1293 90.465 46.3312 90.3852C46.2514 90.1458 46.0918 89.667 45.9322 88.7891C45.7726 87.991 45.5331 87.6717 44.735 87.5919C44.4956 87.5919 44.4158 87.5121 44.1764 87.5121C44.0168 88.4698 43.937 89.0285 43.6975 89.9862C42.8995 89.8266 42.5802 89.7468 41.7821 89.5871C42.5004 87.1929 42.8196 85.916 43.3783 83.4419ZM44.4956 86.4746C44.735 86.5544 44.8947 86.5544 45.2139 86.5544C46.0918 86.714 46.6505 86.3948 46.7303 85.8361C46.8101 85.2775 46.411 84.8784 45.6129 84.7986C45.2139 84.7188 44.9745 84.7188 44.8149 84.7188C44.6552 85.4371 44.5754 85.8361 44.4956 86.4746Z" fill="#28313B"/>
<path d="M51.5187 89.0285C51.2793 89.6669 51.1994 89.9862 50.96 90.7045C50.1619 90.7045 49.7629 90.7045 48.9648 90.6246C50.1619 88.0708 50.6408 86.7938 51.5187 84.24C52.3966 84.24 52.7956 84.24 53.6735 84.1602C54.7908 86.6342 55.4293 87.9112 56.8658 90.3054C56.0678 90.465 55.5889 90.465 54.7908 90.5448C54.4716 89.9064 54.312 89.5871 53.9927 88.9487C52.9552 89.0285 52.4764 89.0285 51.5187 89.0285ZM53.5937 87.8313C53.3543 87.2727 53.2745 87.0333 53.035 86.4746C52.8754 86.0756 52.7158 85.5967 52.5562 85.2775C52.4764 85.6765 52.3966 86.1554 52.237 86.5544C52.0773 87.1131 51.9975 87.3525 51.8379 87.9112C52.4764 87.9112 52.8754 87.9112 53.5937 87.8313Z" fill="#28313B"/>
<path d="M57.9832 90.0661C57.5043 87.5122 57.3447 86.2353 56.8658 83.6814C57.5841 83.5218 57.9832 83.442 58.7014 83.2824C59.4995 84.0804 59.8986 84.4795 60.7765 85.1978C61.4149 85.7564 62.1332 86.3949 62.6919 86.9536C62.2928 86.1555 62.0534 85.3574 61.7341 84.3997C61.4947 83.6814 61.4149 83.3622 61.1755 82.6439C61.7342 82.4843 62.0534 82.3247 62.612 82.165C63.4899 84.5593 63.9688 85.7564 64.8467 88.2305C64.0486 88.5497 63.6496 88.6295 62.8515 88.869C61.814 88.1507 61.3351 87.7516 60.4572 86.9536C59.8187 86.3949 59.1005 85.7564 58.6216 85.0382C58.861 85.8362 59.1005 86.7141 59.3399 87.7516C59.4995 88.4699 59.5793 88.869 59.7389 89.667C59.0207 89.9065 58.7014 89.9863 57.9832 90.0661Z" fill="#28313B"/>
<path d="M65.8045 82.1651C65.0862 82.4843 64.6872 82.6439 63.8891 82.9632C63.7295 82.4843 63.6496 82.2449 63.4102 81.8459C65.4852 81.0478 66.5227 80.4891 68.518 79.292C68.7574 79.691 68.917 79.9305 69.1564 80.3295C68.4382 80.8084 68.0391 80.968 67.3208 81.367C68.2785 83.2026 68.8372 84.1603 69.7949 85.9959C69.0766 86.3949 68.7574 86.5546 68.0391 86.8738C67.1612 85.0382 66.6824 84.0805 65.8045 82.1651Z" fill="#28313B"/>
<path d="M75.3018 78.8929C74.3441 79.6909 73.8653 80.09 72.9076 80.8083C73.3066 81.2871 73.4662 81.5265 73.7854 82.0852C74.9826 81.2073 75.5412 80.8083 76.5787 79.7707C76.898 80.09 77.0576 80.3294 77.3768 80.6486C75.621 82.165 74.7431 82.8833 72.8277 84.1602C71.3912 82.0054 70.6729 80.8881 69.3162 78.7332C70.8325 77.6957 71.6306 77.1371 72.9874 75.9399C73.3066 76.339 73.4662 76.4986 73.7854 76.8178C72.8277 77.6159 72.3489 78.015 71.3912 78.7332C71.7104 79.1323 71.87 79.3717 72.1893 79.8506C73.147 79.1323 73.6258 78.7332 74.5037 77.9352C74.823 78.414 74.9826 78.5736 75.3018 78.8929Z" fill="#28313B"/>
<path d="M80.0902 73.9448C79.2921 74.9823 78.8931 75.4611 78.0152 76.4188C78.494 76.8179 78.6536 77.0573 79.1325 77.4563C80.17 76.339 80.6489 75.7804 81.6066 74.5832C82.0056 74.9025 82.1652 75.0621 82.5643 75.3015C81.0479 77.2169 80.2498 78.0948 78.5738 79.7708C76.818 77.9352 75.9401 76.9775 74.1046 75.0621C75.4613 73.7851 76.0998 73.0669 77.3767 71.4707C77.7757 71.7899 77.9354 71.9495 78.3344 72.189C77.5363 73.2265 77.1373 73.7053 76.2594 74.5832C76.6584 74.9823 76.818 75.1419 77.2171 75.5409C78.095 74.663 78.494 74.1842 79.2921 73.1467C79.5315 73.4659 79.6911 73.6255 80.0902 73.9448Z" fill="#28313B"/>
<path d="M77.8132 50.2418C77.8132 65.4691 65.4691 77.8133 50.2418 77.8133C35.0145 77.8133 22.6703 65.4691 22.6703 50.2418C22.6703 35.0146 35.0145 22.6704 50.2418 22.6704C65.4691 22.6704 77.8132 35.0146 77.8132 50.2418Z" fill="#FFD740" stroke="#28313B" stroke-width="2" stroke-miterlimit="1.5728" stroke-linejoin="round"/>
<path d="M35.3759 66V56.872H37.9519C38.6519 56.872 39.2819 56.9607 39.8419 57.138C40.4019 57.3153 40.8825 57.5907 41.2839 57.964C41.6852 58.328 41.9932 58.7947 42.2079 59.364C42.4225 59.9333 42.5299 60.61 42.5299 61.394C42.5299 62.178 42.4225 62.8593 42.2079 63.438C41.9932 64.0167 41.6899 64.4973 41.2979 64.88C40.9059 65.2533 40.4345 65.5333 39.8839 65.72C39.3425 65.9067 38.7359 66 38.0639 66H35.3759ZM37.4339 64.334H37.8259C38.2179 64.334 38.5725 64.2827 38.8899 64.18C39.2072 64.0773 39.4779 63.914 39.7019 63.69C39.9259 63.4567 40.0985 63.1533 40.2199 62.78C40.3505 62.4067 40.4159 61.9447 40.4159 61.394C40.4159 60.8527 40.3505 60.4 40.2199 60.036C40.0985 59.6627 39.9259 59.3687 39.7019 59.154C39.4779 58.93 39.2072 58.7713 38.8899 58.678C38.5725 58.5847 38.2179 58.538 37.8259 58.538H37.4339V64.334ZM46.2679 61.38L46.0439 62.22H47.9899L47.7799 61.38C47.6492 60.9227 47.5232 60.4373 47.4019 59.924C47.2805 59.4107 47.1592 58.916 47.0379 58.44H46.9819C46.8699 58.9253 46.7532 59.4247 46.6319 59.938C46.5199 60.442 46.3985 60.9227 46.2679 61.38ZM42.9639 66L45.8199 56.872H48.2979L51.1539 66H48.9699L48.4099 63.83H45.6239L45.0639 66H42.9639ZM53.4731 66V62.752L50.7151 56.872H52.9271L53.7391 58.972C53.8698 59.3173 53.9911 59.6533 54.1031 59.98C54.2245 60.2973 54.3505 60.6333 54.4811 60.988H54.5371C54.6678 60.6333 54.7938 60.2973 54.9151 59.98C55.0458 59.6533 55.1765 59.3173 55.3071 58.972L56.1331 56.872H58.2891L55.5311 62.752V66H53.4731ZM61.7869 66.168C61.1895 66.168 60.5922 66.0607 59.9949 65.846C59.4069 65.622 58.8795 65.2907 58.4129 64.852L59.5889 63.438C59.9155 63.718 60.2749 63.9467 60.6669 64.124C61.0682 64.3013 61.4602 64.39 61.8429 64.39C62.2722 64.39 62.5895 64.3107 62.7949 64.152C63.0095 63.9933 63.1169 63.7787 63.1169 63.508C63.1169 63.368 63.0842 63.2467 63.0189 63.144C62.9629 63.0413 62.8742 62.9527 62.7529 62.878C62.6409 62.794 62.5009 62.7193 62.3329 62.654C62.1742 62.5793 61.9969 62.5 61.8009 62.416L60.6109 61.912C60.3775 61.8187 60.1489 61.6973 59.9249 61.548C59.7102 61.3987 59.5142 61.226 59.3369 61.03C59.1689 60.8247 59.0335 60.5913 58.9309 60.33C58.8282 60.0593 58.7769 59.756 58.7769 59.42C58.7769 59.0467 58.8562 58.6967 59.0149 58.37C59.1735 58.034 59.3975 57.7447 59.6869 57.502C59.9762 57.25 60.3169 57.054 60.7089 56.914C61.1102 56.774 61.5489 56.704 62.0249 56.704C62.5569 56.704 63.0795 56.8067 63.5929 57.012C64.1155 57.2173 64.5729 57.516 64.9649 57.908L63.9149 59.21C63.6162 58.9767 63.3175 58.7993 63.0189 58.678C62.7202 58.5473 62.3889 58.482 62.0249 58.482C61.6702 58.482 61.3855 58.5567 61.1709 58.706C60.9655 58.846 60.8629 59.0467 60.8629 59.308C60.8629 59.448 60.8955 59.5693 60.9609 59.672C61.0355 59.7653 61.1335 59.854 61.2549 59.938C61.3855 60.0127 61.5349 60.0873 61.7029 60.162C61.8709 60.2273 62.0529 60.302 62.2489 60.386L63.4249 60.862C63.9849 61.086 64.4235 61.394 64.7409 61.786C65.0675 62.178 65.2309 62.696 65.2309 63.34C65.2309 63.7227 65.1515 64.0867 64.9929 64.432C64.8435 64.768 64.6195 65.0667 64.3209 65.328C64.0315 65.58 63.6722 65.7853 63.2429 65.944C62.8135 66.0933 62.3282 66.168 61.7869 66.168Z" fill="#28313B"/>
<path d="M42.3191 51.3601C40.7591 51.3601 39.4591 51.1001 38.4191 50.5801C37.3791 50.0601 36.5191 49.4201 35.8391 48.6601L37.4891 46.4401C38.0691 47.0201 38.7291 47.5201 39.4691 47.9401C40.2091 48.3401 41.0591 48.5401 42.0191 48.5401C43.0591 48.5401 43.8991 48.2901 44.5391 47.7901C45.1991 47.2701 45.5291 46.5601 45.5291 45.6601C45.5291 45.1601 45.4391 44.7101 45.2591 44.3101C45.0791 43.9101 44.7691 43.5701 44.3291 43.2901C43.9091 43.0101 43.3391 42.8001 42.6191 42.6601C41.8991 42.5001 40.9991 42.4201 39.9191 42.4201V39.9001C40.8591 39.9001 41.6391 39.8301 42.2591 39.6901C42.8991 39.5301 43.4091 39.3201 43.7891 39.0601C44.1891 38.7801 44.4691 38.4501 44.6291 38.0701C44.8091 37.6901 44.8991 37.2801 44.8991 36.8401C44.8991 36.0401 44.6491 35.4201 44.1491 34.9801C43.6491 34.5201 42.9591 34.2901 42.0791 34.2901C41.3191 34.2901 40.6291 34.4601 40.0091 34.8001C39.4091 35.1201 38.8191 35.5501 38.2391 36.0901L36.4691 33.9601C37.2891 33.2401 38.1591 32.6601 39.0791 32.2201C40.0191 31.7801 41.0591 31.5601 42.1991 31.5601C43.1191 31.5601 43.9591 31.6701 44.7191 31.8901C45.4791 32.1101 46.1291 32.4401 46.6691 32.8801C47.2091 33.3001 47.6291 33.8301 47.9291 34.4701C48.2291 35.0901 48.3791 35.8001 48.3791 36.6001C48.3791 37.6801 48.0791 38.5801 47.4791 39.3001C46.8991 40.0201 46.0891 40.5801 45.0491 40.9801V41.1001C46.1891 41.4001 47.1291 41.9501 47.8691 42.7501C48.6291 43.5501 49.0091 44.5801 49.0091 45.8401C49.0091 46.7201 48.8291 47.5001 48.4691 48.1801C48.1291 48.8601 47.6491 49.4401 47.0291 49.9201C46.4291 50.3801 45.7191 50.7401 44.8991 51.0001C44.0991 51.2401 43.2391 51.3601 42.3191 51.3601ZM58.18 51.3601C56.18 51.3601 54.6 50.5101 53.44 48.8101C52.28 47.0901 51.7 44.6101 51.7 41.3701C51.7 38.1301 52.28 35.6901 53.44 34.0501C54.6 32.3901 56.18 31.5601 58.18 31.5601C60.18 31.5601 61.76 32.3901 62.92 34.0501C64.08 35.7101 64.66 38.1501 64.66 41.3701C64.66 44.6101 64.08 47.0901 62.92 48.8101C61.76 50.5101 60.18 51.3601 58.18 51.3601ZM58.18 48.6601C58.64 48.6601 59.06 48.5401 59.44 48.3001C59.84 48.0401 60.18 47.6201 60.46 47.0401C60.74 46.4601 60.96 45.7101 61.12 44.7901C61.28 43.8701 61.36 42.7301 61.36 41.3701C61.36 40.0301 61.28 38.9101 61.12 38.0101C60.96 37.0901 60.74 36.3501 60.46 35.7901C60.18 35.2301 59.84 34.8401 59.44 34.6201C59.06 34.3801 58.64 34.2601 58.18 34.2601C57.72 34.2601 57.29 34.3801 56.89 34.6201C56.51 34.8401 56.18 35.2301 55.9 35.7901C55.62 36.3501 55.4 37.0901 55.24 38.0101C55.08 38.9101 55 40.0301 55 41.3701C55 42.7301 55.08 43.8701 55.24 44.7901C55.4 45.7101 55.62 46.4601 55.9 47.0401C56.18 47.6201 56.51 48.0401 56.89 48.3001C57.29 48.5401 57.72 48.6601 58.18 48.6601Z" fill="#28313B"/>
</svg>
