<svg width="20" height="20" viewBox="0 0 20 20" fill="none" xmlns="http://www.w3.org/2000/svg">
<path d="M9.9938 19.8281H9.9897C8.33105 19.8276 6.70125 19.4114 5.25371 18.6218L0 20L1.40598 14.8645C0.538704 13.3615 0.0823465 11.6566 0.0830902 9.90989C0.0852643 4.44562 4.53112 0 9.99371 0C12.6449 0.00114422 15.1332 1.03324 17.0043 2.90654C18.8754 4.77974 19.9053 7.26968 19.9043 9.91771C19.9021 15.3807 15.458 19.8259 9.9938 19.8281ZM5.49713 16.8277L5.79792 17.0062C7.06263 17.7567 8.51236 18.1538 9.99047 18.1544H9.9938C14.5339 18.1544 18.2291 14.4591 18.2309 9.91714C18.2318 7.71612 17.3758 5.64659 15.8206 4.08957C14.2654 2.53256 12.1972 1.67468 9.99704 1.67391C5.45342 1.67391 1.75818 5.36882 1.75637 9.91046C1.75574 11.4669 2.19123 12.9827 3.01579 14.2942L3.21164 14.6059L2.3795 17.6455L5.49713 16.8277ZM14.9867 12.2744C14.9248 12.1711 14.7597 12.1091 14.5121 11.9851C14.2645 11.8612 13.047 11.2622 12.82 11.1795C12.593 11.0969 12.4279 11.0556 12.2628 11.3034C12.0978 11.5513 11.6232 12.1091 11.4787 12.2744C11.3343 12.4396 11.1898 12.4604 10.9423 12.3364C10.6946 12.2124 9.89673 11.951 8.95086 11.1073C8.2147 10.4506 7.71773 9.63976 7.57328 9.39184C7.42883 9.14392 7.55788 9.00995 7.68185 8.88647C7.79326 8.77548 7.9295 8.59717 8.0533 8.45262C8.17711 8.30806 8.21838 8.2047 8.30092 8.03955C8.38346 7.87421 8.3422 7.72966 8.28028 7.6057C8.21838 7.48174 7.72314 6.26285 7.51679 5.76701C7.31577 5.28415 7.11163 5.34956 6.95964 5.34193C6.81536 5.33469 6.65009 5.33316 6.48503 5.33316C6.31996 5.33316 6.05166 5.39514 5.82468 5.64306C5.59771 5.89097 4.958 6.49007 4.958 7.70887C4.958 8.92776 5.84531 10.1053 5.96913 10.2705C6.09294 10.4359 7.71527 12.937 10.1994 14.0096C10.7902 14.2648 11.2514 14.4172 11.6111 14.5313C12.2043 14.7198 12.7442 14.6932 13.1708 14.6294C13.6466 14.5583 14.6358 14.0304 14.8423 13.452C15.0485 12.8734 15.0485 12.3776 14.9867 12.2744Z" fill="#128C7E"/>
</svg>
