<svg width="49" height="49" viewBox="0 0 49 49" fill="none" xmlns="http://www.w3.org/2000/svg">
<g filter="url(#filter0_d_103_270)">
<path fill-rule="evenodd" clip-rule="evenodd" d="M24.5 46C36.9264 46 47 35.9264 47 23.5C47 11.0736 36.9264 1 24.5 1C12.0736 1 2 11.0736 2 23.5C2 35.9264 12.0736 46 24.5 46Z" fill="white"/>
</g>
<path fill-rule="evenodd" clip-rule="evenodd" d="M34 27.5642V20.4358C34 20.4358 34 17 30.5534 17H17.4454C17.4454 17 14 17 14 20.4358V27.5642C14 27.5642 14 31 17.4454 31H30.5534C30.5534 31 34 31 34 27.5642ZM27.8829 24.01L21.3354 27.8432V20.1756L27.8829 24.01Z" fill="#FF0000"/>
<defs>
<filter id="filter0_d_103_270" x="0" y="0" width="49" height="49" filterUnits="userSpaceOnUse" color-interpolation-filters="sRGB">
<feFlood flood-opacity="0" result="BackgroundImageFix"/>
<feColorMatrix in="SourceAlpha" type="matrix" values="0 0 0 0 0 0 0 0 0 0 0 0 0 0 0 0 0 0 127 0" result="hardAlpha"/>
<feOffset dy="1"/>
<feGaussianBlur stdDeviation="1"/>
<feColorMatrix type="matrix" values="0 0 0 0 0 0 0 0 0 0 0 0 0 0 0 0 0 0 0.16 0"/>
<feBlend mode="normal" in2="BackgroundImageFix" result="effect1_dropShadow_103_270"/>
<feBlend mode="normal" in="SourceGraphic" in2="effect1_dropShadow_103_270" result="shape"/>
</filter>
</defs>
</svg>
